<svg width="20" height="22" viewBox="0 0 20 22" fill="none" xmlns="http://www.w3.org/2000/svg">
<path fill-rule="evenodd" clip-rule="evenodd" d="M17.3868 3.23423C18.0321 3.4146 18.6179 3.77944 19.0674 4.29275C19.705 5.02104 20.0101 5.98197 19.9097 6.94437L18.9334 18.4455C18.8128 20.2318 17.3468 21.6308 15.5555 21.6665L15.5364 21.6667H4.47336L4.45469 21.6665C2.66281 21.6317 1.19585 20.2324 1.07508 18.4456L0.0987615 6.94438C-0.0016113 5.98199 0.303508 5.02105 0.941152 4.29275C1.39055 3.77947 1.97631 3.41462 2.6216 3.23424C2.62702 2.79404 2.7388 2.35524 2.95633 1.95758C3.38789 1.16862 4.18028 0.642781 5.07493 0.551633C5.10725 0.548343 5.13973 0.546692 5.17222 0.546692H14.8362C14.8687 0.546692 14.9012 0.548343 14.9335 0.551633C15.8282 0.642781 16.6205 1.16862 17.0522 1.95758C17.2696 2.35524 17.3814 2.79403 17.3868 3.23423ZM16.2155 5.02669C16.229 5.02697 16.2425 5.02697 16.256 5.02669H16.5007C16.932 5.04054 17.3384 5.23268 17.6228 5.55751C17.9095 5.88503 18.0461 6.31759 17.9995 6.75038L17.9974 6.77204L17.0195 18.292L17.0191 18.2968L17.018 18.3114C16.9669 19.1043 16.3191 19.7266 15.5257 19.7467H4.48382C3.69005 19.7271 3.04165 19.1047 2.9904 18.3114L2.98896 18.292L2.01104 6.77204L2.00896 6.75045C1.96234 6.31762 2.09897 5.88504 2.38572 5.55751C2.67014 5.23265 3.0765 5.04054 3.50774 5.02669H3.75243C3.7659 5.02697 3.77939 5.02697 3.7929 5.02669H16.2155ZM4.55757 3.10669H15.4509C15.4349 3.02801 15.4072 2.95121 15.3677 2.87898C15.2459 2.65641 15.0274 2.50439 14.778 2.46669H5.23044C4.98107 2.50439 4.76254 2.65641 4.6408 2.87898C4.60128 2.95121 4.57353 3.02801 4.55757 3.10669ZM6.80421 8.22669C7.33439 8.22669 7.76421 8.65652 7.76421 9.18669V9.82669C7.76421 11.0638 8.76709 12.0667 10.0042 12.0667C11.2413 12.0667 12.2442 11.0638 12.2442 9.82669V9.18669C12.2442 8.65652 12.674 8.22669 13.2042 8.22669C13.7344 8.22669 14.1642 8.65652 14.1642 9.18669V9.82669C14.1642 12.1242 12.3017 13.9867 10.0042 13.9867C7.70674 13.9867 5.84423 12.1242 5.84423 9.82669V9.18669C5.84423 8.65652 6.27404 8.22669 6.80421 8.22669Z" fill="white"/>
</svg>
