<svg width="340" height="103" viewBox="0 0 340 103" fill="none" xmlns="http://www.w3.org/2000/svg">
<g clip-path="url(#clip0_4_701)">
<g filter="url(#filter0_dd_4_701)">
<path d="M190.207 30.7962C187.865 32.5868 185.329 33.9664 182.442 34.6672C179.631 35.346 176.854 35.2873 174.845 33.0234C172.785 30.7008 173.392 27.9121 174.377 25.2482C175.485 22.2541 177.396 19.8581 179.858 17.8657C181.051 16.9043 182.413 16.431 183.906 16.475C185.465 16.519 186.756 17.2162 187.397 18.6949C187.942 19.9498 187.719 21.2047 186.91 22.3238C185.6 24.1401 183.825 25.406 181.93 26.5288C180.521 27.3654 179.09 28.169 177.754 29.112C177.425 29.3431 177.224 30.1063 177.337 30.521C177.458 30.9649 177.952 31.4566 178.398 31.6291C179.675 32.1244 180.934 31.6438 182.102 31.1631C186.899 29.1743 190.822 25.927 194.529 22.3752C195.444 21.4982 195.261 20.4048 195.242 19.3113C195.187 15.7118 197.522 13.7194 200.245 12.0499C200.644 11.804 201.28 11.8664 201.796 11.9104C202.568 11.9801 203.384 13.4956 202.931 14.0459C202.239 14.8862 201.463 15.6604 200.695 16.4346C199.227 17.9023 199.11 19.6122 199.678 21.4982C200.15 23.065 201.061 23.6484 202.514 23.0833C205.229 22.0266 208.167 21.2744 210.546 19.6893C213.115 17.9794 212.698 14.4496 213.887 11.8407C214.18 11.2023 214.483 10.5088 214.966 10.0354C215.285 9.72355 215.995 9.57311 216.427 9.69786C216.869 9.82629 217.488 10.3657 217.506 10.7509C217.572 12.1599 217.422 13.5763 217.345 15.11C218.607 15.3559 218.871 14.2661 219.263 13.6974C221.023 11.1546 224.327 12.0535 225.795 14.0606C226.526 15.0587 226.87 16.3356 227.467 17.4437C227.588 17.6675 228.063 17.8436 228.341 17.8033C228.612 17.7629 228.996 17.4547 229.055 17.1978C229.22 16.497 229.245 15.7632 229.311 15.0403C229.436 13.7084 230.047 12.6076 230.899 11.6242C233.044 9.15114 236.253 9.7052 237.351 12.7507C237.534 13.2534 237.519 13.8295 237.581 14.3725C237.706 15.4733 238.299 15.9503 239.404 15.8072C239.762 15.7595 240.139 15.7191 240.494 15.7705C242.441 16.0494 243.407 17.2566 242.997 19.1609C242.694 20.5772 242.17 21.9606 241.625 23.3108C240.875 25.1712 240 26.9838 239.199 28.8221C238.902 29.5009 238.734 30.1981 239.323 30.8512C240.765 30.7374 241.427 29.5413 242.199 28.5983C245.434 24.6428 248.651 20.6726 251.772 16.6291C253.006 15.033 254.195 13.4075 255.82 12.2076C256.683 11.5692 257.671 11.0151 258.689 10.6849C260.31 10.1639 262.187 10.8794 263.084 12.1306C263.984 13.3928 263.896 15.1944 262.798 16.7429C261.719 18.2656 260.196 19.2893 258.667 20.28C257.291 21.168 255.831 21.9239 254.44 22.7935C253.829 23.1751 253.262 23.6961 253.496 24.5584C253.803 25.7032 254.78 25.7546 255.67 25.7069C257.712 25.5968 259.603 24.9327 261.279 23.7548C263.958 21.8688 266.629 19.9608 269.253 17.9977C270.765 16.8639 271.614 15.521 271.496 13.3525C271.31 9.83363 273.765 7.76049 276.513 6.10565C277.373 5.58828 278.325 5.72038 278.962 6.53495C279.459 7.17341 279.295 7.93295 278.775 8.5237C278.054 9.34561 277.26 10.0978 276.521 10.9014C275.277 12.2517 275.123 13.7891 275.741 15.4806C276.363 17.1722 277.359 17.6748 279.141 16.9814C280.839 16.3209 282.453 15.4256 284.184 14.8825C285.933 14.3321 286.976 13.5799 287.067 11.5068C287.213 8.22649 289.614 6.39919 292.124 4.81407C292.977 4.27469 293.939 4.54621 294.54 5.35712C295.015 5.99924 294.843 6.82116 294.36 7.38989C293.654 8.21915 292.754 8.88329 292.044 9.70887C291.316 10.5528 290.957 11.5765 290.994 12.736C291.07 15.2641 292.585 16.442 294.913 15.6164C297.317 14.7651 299.655 13.7304 302.063 12.8975C303.443 12.4205 303.995 11.3674 304.544 10.1895C305.69 7.7238 307.761 6.8872 310.344 6.91656C313.272 6.94958 314.794 7.95863 315.592 10.6849C315.896 11.7196 315.929 12.8351 316.079 13.8772C317.539 14.4863 318.611 13.6276 319.694 13.0552C320.653 12.5526 321.48 11.7967 322.42 11.25C323.295 10.7436 324.224 10.8427 324.861 11.6499C325.388 12.3177 325.026 13.0809 324.59 13.668C324.162 14.2441 323.661 14.8275 323.061 15.1981C321.828 15.9613 320.576 16.8236 319.207 17.2199C316.016 18.1482 312.976 19.1682 311.073 22.1917C310.798 22.6284 310.235 22.8779 309.799 23.2081C307.911 24.6428 305.767 24.8299 303.556 24.3346C301.013 23.7695 300.131 21.9055 299.974 19.4875C299.901 18.3427 299.191 17.9757 298.111 18.3647C296.183 19.0618 294.47 19.8764 293.928 22.2174C293.347 24.7419 291.297 26.0811 289.175 27.2076C287.118 28.301 285.212 28.1359 284.132 26.9031C283.06 25.6775 283.367 23.8099 285.043 22.0083C285.783 21.2084 286.654 20.5295 287.488 19.825C288.055 19.348 288.542 18.8564 288.447 17.7409C285.113 17.9867 282.288 19.5572 279.514 21.1717C278.998 21.4725 278.746 22.3678 278.544 23.043C277.622 26.1582 275.324 27.8057 272.474 28.8551C270.124 29.7174 268.854 29.0753 267.852 26.5838C267.72 26.2573 267.826 25.8353 267.698 25.5087C267.585 25.2225 267.295 25.006 267.08 24.7602C264.983 25.8536 262.959 27.1269 260.778 27.9965C257.664 29.2367 254.48 29.7247 251.37 27.7286C249.072 26.2536 249.035 26.3123 247.52 28.0295C245.826 29.9412 244.161 31.8823 242.43 33.7572C241.31 34.9718 240.022 35.9845 238.438 36.5569C236.352 37.3091 234.185 36.0065 234.149 33.7793C234.127 32.3446 234.379 30.8622 234.786 29.4789C235.298 27.736 236.088 26.0738 236.754 24.3749C237.15 23.3732 237.852 22.4522 237.563 21.0396C235.309 20.6139 232.993 20.8304 230.705 21.2634C228.309 21.7147 226.431 22.7091 225.224 25.1785C223.657 28.3854 221.231 30.8842 217.25 30.9759C215.665 31.0126 215.153 32.1538 214.674 33.394C212.771 38.3365 210.846 43.268 208.917 48.1995C208.317 49.7296 207.721 51.2597 207.051 52.7604C206.758 53.4209 206.349 54.0556 205.877 54.5987C205.386 55.1638 204.695 55.4316 203.915 55.2004C203.121 54.9619 202.656 54.3455 202.733 53.5823C202.879 52.1366 203.088 50.6799 203.454 49.2746C204.973 43.4441 206.561 37.6283 208.127 31.8089C208.317 31.1044 208.617 30.4219 208.742 29.7064C209.035 28.0222 210.659 26.0628 208.925 24.7272C207.834 23.8869 203.183 26.6425 202.759 28.2864C201.891 31.6658 199.549 33.4931 196.64 34.814C194.653 35.7166 193.804 35.2873 191.879 32.7445C192.619 30.3742 194.448 28.8955 196.219 27.347C196.626 26.9911 197.475 26.4774 196.183 25.5858C194.232 27.2957 192.22 29.0569 190.211 30.8145L190.207 30.7962ZM181.388 22.4009C182.248 22.2284 182.994 21.8652 183.47 21.0873C183.551 20.9588 183.617 20.669 183.569 20.6396C183.309 20.4745 182.954 20.1956 182.738 20.269C181.9 20.5552 181.351 21.2047 180.993 22.0119C180.887 22.2394 180.781 22.4669 180.674 22.6944C180.912 22.5953 181.146 22.4963 181.384 22.3972L181.388 22.4009ZM304.5 21.3881C306.297 21.6156 307.435 20.7277 308.467 19.6709C309.111 19.0141 309.711 18.2252 308.892 17.3189C307.721 16.0273 305.781 15.7118 305.141 16.7025C304.456 17.7592 303.651 18.8307 303.805 20.1846C303.856 20.6359 304.288 21.0469 304.497 21.3881H304.5ZM308.665 12.4938C308.793 13.9285 309.349 14.5303 310.319 14.7394C311.219 14.9339 311.629 14.2588 311.896 13.6387C312.167 13.0112 312.346 12.2737 312.313 11.5949C312.277 10.8684 311.783 10.2446 311.007 10.1308C310.297 10.0244 309.554 10.1822 309.199 10.9087C308.899 11.5252 308.753 12.215 308.661 12.4938H308.665ZM223.581 17.3226C223.409 17.0107 223.313 16.5814 223.057 16.442C222.823 16.3136 222.256 16.3833 222.12 16.5704C221.608 17.2822 221.147 18.0528 220.792 18.8564C220.573 19.348 220.686 19.9571 221.279 20.17C221.568 20.2727 222.003 20.1663 222.303 20.0122C223.398 19.4508 223.69 18.4674 223.584 17.3189L223.581 17.3226ZM259.475 15.0036C259.428 14.8348 259.424 14.6477 259.329 14.5413C259.234 14.4386 259.033 14.3395 258.908 14.3688C257.81 14.633 257.188 15.4733 256.606 16.3502C256.358 16.7245 256.438 17.0547 256.848 17.2309C256.987 17.2896 257.218 17.2529 257.357 17.1758C258.275 16.6585 259.095 16.0347 259.475 15V15.0036ZM220.258 25.2739C220.529 24.8703 220.43 24.6024 219.969 24.452C218.962 24.1254 218.282 24.6501 217.824 25.417C217.598 25.7986 217.587 26.3673 217.634 26.837C217.678 27.2626 218.022 27.2773 218.443 27.0572C219.237 26.6425 219.87 26.0885 220.254 25.2702L220.258 25.2739Z" fill="#FAFAFA"/>
<path d="M331.261 63.6691C333.285 63.9773 334.573 62.8912 335.964 62.073C336.589 61.7024 337.212 61.3171 337.859 60.9942C338.602 60.6236 339.327 60.7704 339.736 61.4749C340.117 62.128 340.099 62.9096 339.579 63.5223C339.114 64.0727 338.606 64.6195 338.017 65.0267C337.12 65.6468 336.202 66.4027 335.184 66.6486C331.206 67.6136 328.074 69.6647 325.169 72.6185C322.38 75.4511 319.163 75.0732 315.962 72.3029C314.984 71.459 314.234 71.1361 313.107 71.7892C312.481 72.1525 311.815 72.4937 311.124 72.6808C307.629 73.6275 305.543 72.2405 304.932 68.5602C304.782 67.6649 304.837 66.7366 304.753 65.8266C304.676 64.9754 304.991 63.8526 303.812 63.5627C302.865 63.3315 302.06 63.9443 301.434 64.6048C299.176 66.9861 296.94 69.3895 294.73 71.8186C293.5 73.1688 292.399 74.6366 291.122 75.9355C290.511 76.5592 289.68 77.0289 288.868 77.3775C287.572 77.9279 286.079 76.7867 286.39 75.4658C286.833 73.5651 287.455 71.7048 287.993 69.8482C286.511 69.0703 285.852 70.3105 285.073 70.8389C281.53 73.2459 278.116 74.1155 275.028 70.4829C273.454 70.8719 272.73 72.0094 271.742 72.7836C269.334 74.6696 266.805 75.9648 263.687 74.5889C262.67 74.1412 261.953 74.6769 261.243 75.2567C259.973 76.2951 258.809 77.4839 257.444 78.3719C253.899 80.6762 252.094 80.3533 248.922 77.106C248.684 76.8638 248.391 76.673 248.109 76.4455C246.583 76.5262 246.163 77.9205 245.398 78.8525C243.085 81.6779 240.897 84.6059 238.562 87.4129C237.64 88.5247 236.568 89.5741 235.382 90.3924C233.304 91.8271 230.764 90.7226 230.42 88.2202C230.197 86.613 230.383 84.9472 230.398 83.307C230.405 82.2356 230.768 81.1348 230.076 80.1441C228.66 79.924 227.738 81.0431 226.552 81.4504C222.801 82.731 221.041 81.9898 219.134 78.2728C218.893 77.8068 218.611 77.3591 218.388 76.9739C217.012 76.706 216.324 77.6931 215.442 78.2361C212.957 79.7589 210.553 81.443 207.973 82.7787C204.479 84.5876 201.002 84.8004 197.95 81.6889C197.72 81.4541 197.299 81.41 196.915 81.2559C195.722 82.0301 194.551 82.9144 193.274 83.6042C189.186 85.8095 186.185 84.4518 185.128 79.979C185.003 79.447 184.956 78.8966 184.868 78.3572C184.718 77.4472 184.026 77.0656 183.302 77.3298C181.597 77.9536 179.943 78.7241 178.303 79.5057C177.432 79.9203 177.022 80.7422 176.803 81.6742C176.049 84.8922 173.55 86.3929 170.842 87.6184C169.151 88.3816 167.526 87.8202 166.578 86.2938C165.766 84.9912 166.275 83.8538 167.065 82.764C167.171 82.6172 167.299 82.4814 167.402 82.331C168.522 80.6688 171.288 80.2138 171.416 78.1334C171.519 76.4859 170.26 74.7723 169.689 73.0588C169.261 71.7709 169.616 70.5013 170.183 69.3418C171.178 67.3054 172.785 65.8303 174.812 64.8726C175.738 64.436 176.602 64.7699 177.15 65.6579C177.611 66.4064 177.268 67.0669 176.752 67.6283C176.012 68.4318 175.2 69.1693 174.483 69.9949C173.579 71.0333 173.378 72.2882 173.714 73.5945C174.45 76.4492 175.573 76.6363 177.593 75.7704C179.269 75.0512 180.934 74.2696 182.672 73.7523C184.952 73.0734 186.566 71.9066 187.115 69.4482C187.356 68.3731 187.975 67.4558 189.109 67.0008C189.914 66.6779 189.987 66.0688 189.779 65.2432C189.003 62.1574 190.811 60.1026 192.798 58.2056C193.083 57.934 193.859 57.9561 194.295 58.1248C195.023 58.4111 195.48 59.1743 195.206 59.8971C194.32 62.2418 193.826 64.9093 191.008 65.9074C190.134 66.2156 189.958 66.6632 190.54 67.4558C191.532 68.8098 191.019 70.2334 190.635 71.6571C190.017 73.9431 189.38 76.229 188.893 78.548C188.725 79.3479 188.527 80.412 189.655 80.878C190.43 81.2009 191.126 80.7973 191.667 80.3679C194.532 78.082 197.149 75.5649 199.015 72.3433C200.311 70.1087 201.968 68.164 204.061 66.6339C205.576 65.5258 207.252 64.8616 209.174 65.1295C210.33 65.2909 211.311 65.8523 211.684 66.9715C212.16 68.4025 212.2 69.9215 210.97 71.0333C210.187 71.7415 209.379 71.3342 208.559 70.7325C206.704 69.3748 206.374 69.4115 205.126 70.8389C203.055 73.2019 201.28 75.73 201.068 79.0213C200.991 80.2175 202.001 81.0468 203.191 80.8339C205.211 80.4707 207 79.5314 208.647 78.3902C211.644 76.3134 214.571 74.1339 217.491 71.947C219.112 70.7325 220.492 69.3381 221.001 67.2173C221.198 66.3844 221.725 65.3203 222.406 64.9754C224.056 64.1424 223.892 63.1811 223.778 61.5263C223.617 59.1596 224.989 57.0167 227.013 55.5637C227.353 55.3179 228.147 55.3692 228.532 55.6077C228.923 55.8536 229.223 56.4737 229.297 56.969C229.472 58.1212 228.576 59.0128 228.338 60.0475C227.851 62.1757 224.682 62.594 224.909 64.4874C225.139 66.4174 224.909 68.0319 224.375 69.7784C223.789 71.6975 223.335 73.6605 222.882 75.6162C222.761 76.1373 222.838 76.706 222.856 77.2527C222.878 77.9242 223.785 78.5443 224.4 78.3058C224.905 78.1114 225.469 77.9683 225.879 77.6417C229.787 74.5522 233.051 71.1287 234.493 66.0211C236.926 57.413 239.839 48.9407 242.569 40.417C243.272 38.2264 244.106 37.3715 245.266 37.4889C246.62 37.6247 247.096 39.2978 246.346 41.6462C243.78 49.6488 241.131 57.6258 238.61 65.6432C236.688 71.7488 235.159 77.9609 234.065 84.272C233.992 84.694 234.365 85.1967 234.529 85.659C235.009 85.4682 235.635 85.4095 235.942 85.0609C237.398 83.4281 238.815 81.7549 240.158 80.023C242.844 76.5629 245.5 73.0734 248.113 69.5546C248.867 68.5419 249.569 67.4448 250.049 66.2853C250.748 64.5828 251.264 62.8215 253.035 61.8675C253.573 61.5776 253.727 61.1336 253.514 60.5539C252.464 57.6478 254.466 55.7398 255.834 53.663C256.222 53.0723 257.009 52.7971 257.777 53.1677C258.769 53.6447 259.022 54.6023 258.714 55.472C257.986 57.5231 257.265 59.6439 255.223 60.8474C254.711 61.1483 254.213 61.6107 254.396 62.0766C255.403 64.6048 253.774 66.6926 253.383 68.9785C252.991 71.2682 251.644 73.4734 252.735 75.9025C255.842 76.4161 257.21 73.8623 258.912 72.1561C260.829 70.2298 262.388 67.9401 264.101 65.8083C265.854 63.6288 267.855 61.7941 270.713 61.2511C272.192 60.9722 273.652 60.9355 274.508 62.5647C274.592 62.7261 274.651 62.983 274.775 63.0233C277.304 63.8342 278.618 65.412 278.427 68.2153C278.365 69.151 279.551 69.617 280.473 69.206C282.332 68.3841 283.894 67.1292 285.42 65.8193C287.909 63.6765 290.353 61.4822 292.911 59.4274C294.243 58.356 295.872 59.233 295.996 60.9612C296.022 61.3171 295.93 61.684 295.868 62.0436C295.806 62.4032 295.571 62.7958 295.659 63.104C295.806 63.6287 296.248 64.0691 296.823 63.6838C297.723 63.0784 298.495 62.2675 299.417 61.7061C300.651 60.9502 301.921 60.1723 303.278 59.721C305.448 59.0055 307.417 60.0732 307.929 62.2895C308.335 64.0507 308.332 65.911 308.544 67.72C308.672 68.7914 309.631 69.4005 310.472 68.8795C314.033 66.6632 317.539 64.3736 319.379 60.3411C320.367 58.1725 322.032 56.9433 324.429 56.6718C327.906 56.2792 329.944 57.6405 330.83 61.0933C331.049 61.9519 331.115 62.8472 331.243 63.6875L331.261 63.6691ZM273.487 65.1185C273 64.957 272.452 64.5607 272.027 64.6672C269.228 65.3717 267.35 67.2503 266.022 69.7381C265.674 70.3875 265.462 71.1434 265.989 71.7709C266.618 72.5267 267.314 71.9947 267.866 71.6094C269.967 70.149 271.665 68.274 273.202 66.2486C273.399 65.9881 273.381 65.5698 273.487 65.1221V65.1185ZM324.345 68.2263C324.301 67.3861 323.335 66.4541 322.472 66.1495C321.78 65.9037 321.099 65.8413 320.51 66.4284C318.959 67.9768 318.421 70.6481 319.625 71.1287C321.194 71.7598 322.325 70.6921 323.353 69.7197C323.84 69.2574 324.118 68.5786 324.345 68.23V68.2263ZM326.178 59.8714C324.879 60.1209 324.038 60.675 323.807 61.9446C323.624 62.9426 323.847 63.7242 324.755 64.2635C325.476 64.6892 326.197 64.6635 326.658 63.981C327.28 63.0637 327.642 61.9812 327.225 60.8878C327.06 60.4548 326.501 60.1723 326.182 59.8714H326.178Z" fill="#FAFAFA"/>
<path d="M67.5448 81.0798C68.9939 80.8963 69.4733 79.5754 70.3149 78.6911C71.5737 77.3738 72.6862 75.8951 74.0585 74.7173C76.781 72.3763 79.2804 73.2422 80.1184 76.6657C80.3709 77.6967 79.9391 78.8672 80.7405 79.7845C86.4162 78.8892 87.0017 78.9883 88.7216 86.015C89.6913 86.3048 90.5549 85.9599 91.2612 85.3802C93.5117 83.5309 95.7329 81.6412 97.9139 79.7112C98.4409 79.2452 99.0227 78.5957 99.1325 77.9573C99.4838 75.9355 100.538 74.5375 102.474 74.0642C104.611 73.5431 106.967 73.1872 108.724 74.8457C110.681 76.6913 112.277 76.174 113.964 74.6916C115.468 73.367 116.928 71.991 118.41 70.6444C119.362 69.7785 120.328 68.8795 121.725 68.9859C122.22 69.0226 122.864 69.2684 123.123 69.6427C123.372 69.9986 123.427 70.7912 123.189 71.1287C122.571 72.0167 121.74 72.7506 121.012 73.5578C119.46 75.2787 119.482 77.1904 120.441 79.1534C120.869 80.0304 121.594 80.6321 122.64 80.2395C125.367 79.2158 128.06 78.0967 130.793 77.0913C132.144 76.5923 132.671 75.5465 133.198 74.3283C134.299 71.7892 136.52 71.1177 139.049 71.1838C142.148 71.2645 143.535 72.3836 144.52 75.5172C144.783 76.3574 144.56 77.3702 145.457 78.0783C147.81 78.3095 149.277 76.3281 151.242 75.5319C152.168 75.1576 153.028 75.198 153.577 76.1777C153.99 76.9152 153.73 77.6344 153.218 78.1811C151.82 79.6818 150.056 80.7826 148.146 81.2926C144.919 82.1549 142.053 83.2777 139.96 86.1471C138.606 88.0037 136.363 88.5247 134.061 88.4293C131.233 88.3156 129.893 87.2442 129.07 84.3381C128.88 83.663 128.828 82.9475 128.715 82.243C124.463 83.0795 124.43 83.0649 122.853 86.5874C121.634 89.3136 119.354 90.708 116.716 91.6363C115.633 92.0179 114.557 91.684 113.62 91.0235C112.409 90.1686 112.142 88.433 113.02 87.1194C114.158 85.4169 115.892 84.3528 117.378 83.0208C118.417 82.0888 117.89 81.0321 117.21 80.1074C116.573 79.2415 115.988 78.2324 114.615 78.7461C112.508 79.535 110.769 80.5441 110.092 83.0392C109.412 85.5453 107.736 87.5561 105.712 89.2036C102.777 91.5922 99.7034 91.9592 96.7429 89.5411C94.9937 88.1101 93.7642 87.945 92.0187 89.0788C91.4259 89.4641 90.672 89.6475 89.9621 89.798C87.492 90.319 85.2525 88.965 84.506 86.5066C84.3486 85.9893 84.4108 85.4132 84.2828 84.8812C83.9937 83.6666 83.2179 83.3364 82.4128 84.1216C81.1064 85.3912 79.8805 86.7488 78.5997 88.0404C77.0152 89.6402 75.8991 89.9484 74.8635 89.1375C73.5315 88.0918 74.2597 86.8332 74.4939 85.6297C74.8269 83.9125 75.7967 82.254 74.9806 80.1405C72.4959 81.5018 71.3249 83.8501 69.6782 85.7141C67.6253 88.0367 65.7809 90.5502 63.6256 92.7627C61.3092 95.1441 60.3614 94.8285 58.4878 91.5409C58.4 91.3868 58.2463 91.2657 58.0084 91.0015C55.9994 92.0876 54.0014 93.3168 51.8826 94.2745C48.2306 95.9256 44.5309 96.5274 41.0509 93.7901C39.8799 92.8692 39.0565 93.4122 38.2771 94.2928C37.1902 95.522 36.1619 96.8099 35.0458 98.0135C34.0578 99.0812 33.0442 100.149 31.9354 101.085C29.4287 103.198 27.7893 103.506 26.0694 102.244C24.0641 100.773 24.3641 98.7767 25.0045 96.7916C25.6193 94.8799 26.3402 93.0049 27.0208 91.1152C27.3282 90.264 27.6942 89.431 27.9686 88.5688C28.1991 87.8386 27.4307 87.1451 26.6988 87.3102C25.407 87.5964 24.3934 88.356 23.3615 89.1118C20.7157 91.0565 18.081 93.0123 15.4023 94.9093C13.3091 96.3953 11.0111 97.4888 8.58489 98.3327C6.55393 99.0409 4.62178 98.8831 2.81771 97.7529C0.801395 96.4907 -0.248846 94.6708 0.0512228 92.2234C0.676976 87.1084 3.57886 83.5309 7.7908 80.889C8.8996 80.1918 10.1767 80.0341 11.4831 80.1551C13.7007 80.3606 14.9412 82.0521 14.5826 84.3931C14.3521 85.8902 13.192 86.536 11.8417 85.8572C11.366 85.6187 10.9635 85.2224 10.5353 84.8885C9.85103 84.3565 9.21796 84.4849 8.61416 85.0243C6.08188 87.2955 4.5486 90.1392 3.93016 93.4709C3.65571 94.946 4.82671 96.0064 6.24289 95.5C7.77617 94.9533 9.32774 94.3442 10.6927 93.4746C13.1518 91.9115 15.4389 90.0842 17.8687 88.4734C19.7533 87.2221 20.6059 85.9122 19.6252 83.5052C18.9007 81.7256 19.8448 79.924 21.0304 78.4453C22.8052 76.2217 26.095 76.5739 27.3721 79.1167C27.61 79.5937 27.793 80.1551 27.8039 80.6798C27.8405 82.2246 28.3821 82.7456 30.0837 82.8227C33.1137 82.9585 34.0029 84.3161 33.143 87.0974C32.4989 89.1815 31.4267 91.1299 30.7095 93.192C30.1972 94.6708 28.8542 95.944 29.3628 97.7493C30.7168 97.7493 31.2657 96.7109 31.9024 95.922C35.2252 91.8051 38.5625 87.6955 41.7425 83.4685C43.0745 81.6999 44.4138 79.99 46.2216 78.7205C47.8024 77.6087 49.5589 77.3298 51.4179 78.0049C53.2403 78.6691 54.0819 80.6652 53.3171 82.4778C52.5706 84.2464 51.1581 85.4022 49.6468 86.4259C47.839 87.6514 45.9361 88.7302 44.1431 89.9704C43.7881 90.2163 43.5722 90.8914 43.5649 91.3758C43.5466 92.3041 44.3663 92.5719 45.0725 92.6086C46.9461 92.7077 48.6477 92.0289 50.2688 91.1593C53.9941 89.1632 57.2217 86.492 60.3321 83.663C61.58 82.5255 62.3594 81.1165 62.9156 79.5314C63.2084 78.6948 63.6256 77.8508 64.1818 77.1647C64.6392 76.5996 65.4516 76.3831 66.1542 76.7904C66.5897 77.0436 66.9885 77.4729 67.241 77.9169C67.7973 78.8929 66.7177 80.0707 67.5484 81.0651L67.5448 81.0798ZM98.8471 87.0167C99.03 87.479 99.0886 87.8753 99.3082 88.1248C99.718 88.5871 100.293 88.5321 100.772 88.2532C103.048 86.9286 104.548 84.8738 105.855 82.6576C106.363 81.7916 105.847 80.9294 104.746 80.6945C103.838 80.5 102.865 80.3129 102.166 81.0284C100.497 82.7383 99.1288 84.65 98.8507 87.0167H98.8471ZM133.659 85.5233C133.838 85.549 134.028 85.626 134.197 85.593C135.917 85.2444 137.077 84.1363 137.937 82.6869C138.087 82.4338 138.061 81.9861 137.948 81.6889C137.464 80.412 135.101 79.8726 134.284 80.8376C133.454 81.8247 132.821 82.9108 132.843 84.2684C132.854 84.8591 133.128 85.2701 133.655 85.5196L133.659 85.5233ZM140.853 76.9996C140.879 76.4492 140.999 76.0529 140.893 75.73C140.729 75.231 140.524 74.5522 140.136 74.365C139.477 74.0421 138.694 74.255 138.178 74.8567C137.314 75.8621 137.278 77.2527 138.028 78.3315C138.562 79.1021 139.942 79.1131 140.326 78.3315C140.564 77.8508 140.721 77.3335 140.853 76.9996ZM46.8437 84.129C47.7219 84.1987 49.4345 82.6099 49.4016 81.7256C49.3979 81.5935 49.1966 81.3697 49.0686 81.3587C48.1867 81.2706 46.4777 82.8704 46.5107 83.751C46.5143 83.8794 46.7266 84.0042 46.8437 84.129ZM105.474 76.5299C104.808 76.6877 104.029 76.9005 104.157 77.7811C104.193 78.0233 105.05 78.2838 105.536 78.2948C106.217 78.3095 107.084 78.1994 106.825 77.1647C106.689 76.6216 106.071 76.4932 105.474 76.5336V76.5299Z" fill="#FAFAFA"/>
<path d="M124.77 40.4133C126.355 39.7528 127.302 38.3622 128.265 37.0816C131.862 32.2932 136.14 28.0222 138.738 22.4743C139.869 20.0562 142.361 19.6563 144.882 19.8984C147.312 20.1333 148.94 21.3295 149.647 23.7255C149.947 24.7419 149.592 26.1655 150.704 26.6756C151.989 27.2663 153.094 26.2683 154.162 25.6115C154.938 25.1382 155.681 24.5878 156.501 24.2135C157.39 23.8062 158.305 23.8869 158.868 24.8226C159.304 25.5491 159.011 26.2463 158.469 26.793C156.497 28.7817 154.133 30.2604 151.407 30.6898C149.218 31.0347 147.853 32.0731 146.525 33.7352C143.733 37.2321 140.22 38.6374 135.942 36.4101C134.661 35.7423 133.922 36.3257 133.135 37.1807C131.408 39.063 129.696 40.9564 127.917 42.7873C126.9 43.8331 125.74 44.7284 124.305 45.1834C122.241 45.8402 120.163 44.4568 119.991 42.2736C119.874 40.7876 120.2 39.3639 120.726 37.9879C121.575 35.7717 122.465 33.5738 123.281 31.3466C123.453 30.8769 123.628 30.2935 123.087 29.8458C122.41 29.2844 121.645 29.4862 121.096 29.8752C119.91 30.7118 118.791 31.6548 117.729 32.6491C115.453 34.7773 112.972 36.6376 110.312 38.2301C107.794 39.7345 105.127 40.861 102.078 40.8023C97.859 40.7179 96.2233 39.3529 95.6524 35.0819C95.5061 33.9811 95.6634 32.7152 94.2326 32.5611C92.5566 32.3813 90.6501 31.1741 89.2998 33.3536C88.4361 34.748 87.5835 36.168 86.5735 37.4522C85.4538 38.8796 84.2828 40.3179 82.9105 41.4884C80.2611 43.756 77.114 42.6919 76.1626 39.3419C76.1114 39.1658 76.0601 38.9896 76.0382 38.8098C75.5881 34.5608 76.0748 30.4182 77.5715 26.4224C77.8203 25.7509 78.5083 25.3326 79.3499 25.4464C80.455 25.5968 80.9564 26.3674 80.9125 27.3287C80.8612 28.4075 80.499 29.4716 80.3233 30.5503C80.0013 32.5317 79.6646 34.5095 79.456 36.5055C79.3938 37.1146 79.1706 38.0466 80.1733 38.2594C81.0149 38.4356 81.4577 37.7458 81.9371 37.221C82.303 36.8174 82.6543 36.3918 82.9617 35.9368C85 32.917 87.2652 30.0256 88.0958 26.349C88.3117 25.3877 88.9558 24.7052 90.0133 24.7969C91.0453 24.885 91.5759 25.6262 91.7662 26.6059C91.8357 26.9618 91.7808 27.3434 91.865 27.692C92.2931 29.5082 92.7176 29.7541 94.4448 29.3505C96.2562 28.9248 97.8554 28.235 99.0447 26.6646C99.8058 25.6592 100.787 24.8042 101.749 23.9713C102.73 23.1237 103.923 22.61 105.207 22.4522C106.781 22.2578 108.05 22.8815 108.995 24.1585C109.865 25.3326 109.906 26.9361 109.002 28.2644C108.069 29.6403 106.828 30.7191 105.419 31.5961C103.718 32.6565 101.998 33.6765 100.304 34.7516C99.6741 35.1516 99.1947 35.7166 99.396 36.5532C99.6668 37.6907 100.626 37.8448 101.522 37.7935C102.415 37.7421 103.341 37.5549 104.171 37.2247C108.479 35.5112 112.043 32.6895 115.347 29.5046C116.105 28.7744 116.021 27.9341 115.625 27.0168C114.678 24.8299 114.904 22.7274 116.302 20.7974C117.206 19.5535 118.388 18.6986 120.017 18.9811C121.561 19.249 122.662 20.1333 123.109 21.7C123.208 22.0486 123.273 22.4192 123.27 22.7788C123.251 24.1328 123.833 24.8079 125.238 24.6465C125.597 24.6061 125.978 24.5731 126.325 24.6428C128.261 25.0207 129.121 26.2279 128.722 28.1726C128.503 29.2367 128.115 30.2715 127.709 31.2842C126.757 33.6545 125.751 36.0065 124.755 38.3622C124.466 39.052 124.258 39.7272 124.763 40.4243L124.77 40.4133ZM143.184 30.6861C142.986 30.4146 142.829 30.0917 142.58 29.8862C140.827 28.4295 139.62 28.6423 138.851 30.5943C138.529 31.4126 138.368 32.3042 138.2 33.1775C138.076 33.838 138.972 34.5095 139.605 34.3113C141.241 33.805 142.299 32.6528 143.111 31.2181C143.191 31.075 143.162 30.8659 143.184 30.6898V30.6861ZM144.805 23.0687C143.554 23.0357 142.752 24.0337 142.771 25.6078C142.782 26.6169 143.279 27.325 144.249 27.5268C145.296 27.7433 146.123 26.6095 146.207 24.9143C146.254 23.9273 145.918 23.1898 144.802 23.065L144.805 23.0687ZM105.295 26.9948C105.101 26.7746 104.874 26.3563 104.728 26.382C103.806 26.5471 103.264 27.2553 102.781 27.9892C102.697 28.1139 102.678 28.4368 102.744 28.4772C102.993 28.635 103.355 28.8735 103.56 28.7927C104.391 28.4698 104.977 27.8461 105.291 26.9948H105.295Z" fill="#FAFAFA"/>
<path d="M34.3945 5.68369C32.0488 5.34612 30.135 5.8378 28.2028 6.34049C27.3429 6.56431 26.3695 6.67806 25.5205 6.49826C24.8911 6.36617 24.0677 5.77175 23.8921 5.21035C23.6615 4.46549 24.4922 3.99582 25.2021 3.83071C27.8625 3.20693 30.618 2.87303 33.1832 1.97773C37.2122 0.576068 41.3509 0.337565 45.519 0.106401C46.4265 0.0550316 47.3999 -0.117424 48.2416 0.121078C53.9136 1.72822 55.1175 1.63649 53.1012 7.63207C49.1344 19.4067 45.4055 31.2622 42.7964 43.4331C42.4927 44.8531 42.2804 46.2988 42.1194 47.7445C42.0682 48.2142 42.3134 48.7205 42.489 49.4911C44.4614 48.7132 45.336 47.0694 46.4045 45.675C49.5223 41.6205 52.5926 37.5329 55.6884 33.46C56.241 32.7299 56.7972 31.9703 57.7889 31.8346C58.539 31.7318 59.3185 31.8639 59.6954 32.5537C59.9223 32.9647 59.8564 33.5885 59.7832 34.0948C59.7357 34.4287 59.4649 34.748 59.2416 35.0305C54.9419 40.4794 50.6384 45.9209 46.324 51.3587C45.4129 52.5072 44.4431 53.5933 43.1001 54.2721C41.3546 55.1528 39.3237 54.4226 38.5625 52.5916C37.7574 50.6542 37.9002 48.6215 38.2258 46.6437C38.7272 43.5799 39.3383 40.5271 40.0482 37.5036C42.3573 27.7103 45.4678 18.1482 48.4318 8.54572C48.8088 7.32385 49.2223 6.10932 49.5223 4.86911C49.8224 3.62156 49.0283 2.72259 47.7622 2.75561C47.5792 2.75928 47.3999 2.77763 47.2169 2.79231C42.5085 3.1788 39.4164 5.64577 37.9404 10.1932C33.7138 23.2265 29.5421 36.2817 26.417 49.6378C26.084 51.0578 25.8389 52.5035 25.6632 53.9529C25.4839 55.4243 26.0694 55.9453 27.4892 55.7839C29.4763 55.5564 31.4597 55.2371 33.454 55.1821C34.292 55.1564 35.1703 55.6481 35.9863 56.0114C36.2425 56.1251 36.4767 56.5911 36.473 56.892C36.473 57.1782 36.1876 57.6552 35.9497 57.7139C35.0751 57.9304 34.1713 58.0662 33.271 58.1285C30.1679 58.345 27.1928 59.0422 24.1812 59.8604C20.5218 60.8511 16.6758 61.1447 12.9066 61.6987C12.3833 61.7758 11.7759 61.7428 11.2965 61.5409C10.85 61.3538 10.356 60.9465 10.1804 60.5135C9.95716 59.9705 10.3853 59.4935 10.9415 59.3284C12.1601 58.9651 13.3933 58.6386 14.6302 58.334C16.0464 57.9818 17.4625 57.6332 18.8934 57.3396C20.3534 57.0424 20.9865 56.0994 21.2719 54.7088C24.3861 39.452 29.0774 24.6355 33.7358 9.80794C34.1127 8.60442 34.7385 7.43393 34.4128 5.67635L34.3945 5.68369Z" fill="#FAFAFA"/>
</g>
</g>
<defs>
<filter id="filter0_dd_4_701" x="-2.99933" y="-0.00201416" width="345.998" height="109.992" filterUnits="userSpaceOnUse" color-interpolation-filters="sRGB">
<feFlood flood-opacity="0" result="BackgroundImageFix"/>
<feColorMatrix in="SourceAlpha" type="matrix" values="0 0 0 0 0 0 0 0 0 0 0 0 0 0 0 0 0 0 127 0" result="hardAlpha"/>
<feMorphology radius="1" operator="erode" in="SourceAlpha" result="effect1_dropShadow_4_701"/>
<feOffset dy="4"/>
<feGaussianBlur stdDeviation="2"/>
<feComposite in2="hardAlpha" operator="out"/>
<feColorMatrix type="matrix" values="0 0 0 0 0.0470588 0 0 0 0 0.0470588 0 0 0 0 0.0509804 0 0 0 0.05 0"/>
<feBlend mode="normal" in2="BackgroundImageFix" result="effect1_dropShadow_4_701"/>
<feColorMatrix in="SourceAlpha" type="matrix" values="0 0 0 0 0 0 0 0 0 0 0 0 0 0 0 0 0 0 127 0" result="hardAlpha"/>
<feMorphology radius="1" operator="erode" in="SourceAlpha" result="effect2_dropShadow_4_701"/>
<feOffset dy="4"/>
<feGaussianBlur stdDeviation="2"/>
<feComposite in2="hardAlpha" operator="out"/>
<feColorMatrix type="matrix" values="0 0 0 0 0.0470588 0 0 0 0 0.0470588 0 0 0 0 0.0509804 0 0 0 0.1 0"/>
<feBlend mode="normal" in2="effect1_dropShadow_4_701" result="effect2_dropShadow_4_701"/>
<feBlend mode="normal" in="SourceGraphic" in2="effect2_dropShadow_4_701" result="shape"/>
</filter>
<clipPath id="clip0_4_701">
<rect width="340" height="103" fill="white"/>
</clipPath>
</defs>
</svg>
