<svg width="604" height="232" viewBox="0 0 604 232" fill="none" xmlns="http://www.w3.org/2000/svg">
<g filter="url(#filter0_dd_4_802)">
<path d="M95.6749 15.034C101.147 17.3826 106.774 19.4182 111.686 22.8858C112.599 23.5312 113.484 22.9201 113.543 21.679C113.597 20.5409 113.562 19.3952 113.585 18.2572C113.694 13.3651 113.694 13.3002 118.929 13.2887C141.756 13.2391 164.578 13.2658 187.405 13.2009C237.893 13.0558 288.386 12.8725 338.874 12.7082C340.614 12.7044 342.357 12.6739 344.097 12.7617C346.319 12.8725 346.889 13.3613 346.99 15.4503C347.111 17.9173 347.06 20.3958 347.091 22.8705C347.099 23.619 347.076 24.463 347.899 24.8067C348.699 25.139 349.359 24.5776 349.988 24.1537C351.421 23.1836 352.815 22.1487 354.287 21.2436C370.749 11.0928 387.991 9.87839 405.828 17.1917C408.43 18.2572 410.504 18.1732 412.95 17.0657C421.769 13.0749 431.105 11.9368 440.709 12.6471C453.194 13.5713 463.749 18.6696 472.669 27.1859C474.332 28.7746 475.838 30.5199 477.431 32.1811C478.992 33.8156 479.411 33.808 481.112 32.078C482.995 30.1647 484.774 28.1483 486.743 26.3228C496.906 16.89 508.991 12.0781 522.967 12.0017C528.983 11.9674 534.963 12.4333 540.699 14.4C557.068 20.0215 568.334 30.6879 573.852 47.0063C574.217 48.0794 574.691 49.1182 575.114 50.1761C575.996 57.3442 576.093 64.5277 575.945 71.7494C575.533 91.6767 575.351 111.608 575.083 131.539C574.99 138.589 574.38 145.558 571.992 152.287C570.392 156.794 567.868 160.83 565.631 165.016L565.704 165.062C565.071 165.314 564.714 165.78 564.578 166.425L564.87 166.41L564.578 166.383C563.044 167.464 562.031 168.992 560.967 170.477L560.687 170.748C559.351 171.546 558.287 172.612 557.472 173.918L557.219 174.162C555.953 175.174 554.687 176.183 553.417 177.195C551.608 178.279 549.786 179.349 547.992 180.456C539.173 185.898 529.464 187.815 519.193 187.59C508.463 187.353 498.669 184.348 489.939 178.142C489.337 177.714 488.774 177.13 487.737 177.378C486.751 177.878 487.186 178.944 487.124 179.799C487.03 181.124 487.139 182.461 487.077 183.79C486.933 186.899 486.397 187.491 483.353 187.582C479.683 187.693 476.005 187.724 472.332 187.72C415.494 187.662 358.652 187.594 301.815 187.529C258.697 187.483 215.583 187.445 172.466 187.403C172.077 187.403 171.693 187.41 171.305 187.407C168.669 187.376 166.868 185.917 165.903 183.03C158.353 187.724 150.412 189.438 141.658 186.669C132.82 183.874 127.461 177.894 124.401 169.652C122.548 169.381 122.039 170.882 121.166 171.772C112.96 180.105 103.073 185.497 91.407 187.017C77.5704 188.82 64.4328 186.631 52.7631 178.482C51.3496 177.496 49.8933 176.572 48.4603 175.617H48.4448C47.0778 173.865 45.474 172.36 43.6099 171.126C43.206 170.103 42.4682 169.385 41.4973 168.877C41.1168 168.224 40.8061 167.514 40.3401 166.922C32.814 157.393 29.482 146.532 29.5053 134.548C29.517 129.229 29.3461 123.909 29.2296 118.593C28.8335 100.17 28.3908 81.7474 28.0102 63.3247C27.917 58.7458 28.5811 54.2318 29.8471 49.8209C32.6043 40.2047 38.1071 32.3224 45.6681 25.7653C47.6836 24.0162 49.7846 22.3626 51.8467 20.667L51.87 20.6784C52.736 20.3003 53.6253 19.9719 54.4602 19.5365C62.3979 15.393 70.8327 13.3689 79.8344 13.3689C84.4479 13.3689 88.9644 14.0449 93.5118 14.549C94.2342 14.7094 94.9526 14.8736 95.6749 15.034Z" fill="#FAFAFA"/>
<path d="M474.204 168.431C474.196 174.606 474.468 174.843 467.858 174.808C461.474 174.774 455.089 174.866 448.709 174.816C445.808 174.793 445.33 174.32 445.33 171.444C445.33 159.265 445.381 147.083 445.435 134.904C445.529 113.969 445.637 93.0368 445.746 72.1013C445.758 69.8176 445.847 67.5338 445.874 65.2539C445.901 62.7372 445.478 60.3275 444.03 58.1774C441.432 54.3164 437.136 52.6208 432.387 53.7588C427.572 54.916 424.772 58.1163 423.766 62.7792C423.409 64.429 423.517 66.1896 423.51 67.8966C423.432 82.55 423.339 97.2072 423.327 111.86C423.323 117.914 423.222 117.826 417.215 117.78C410.636 117.73 404.057 117.818 397.483 117.753C394.893 117.73 394.411 117.222 394.333 114.74C394.248 112.078 394.298 109.413 394.306 106.747C394.337 93.6135 394.372 80.4839 394.403 67.3505C394.403 66.2087 394.419 65.063 394.341 63.9249C393.914 57.8222 389.906 53.8123 384.104 53.6443C378.039 53.4686 373.161 57.383 372.322 63.2184C372.081 64.9064 372.105 66.6364 372.105 68.3473C372.085 101.461 372.062 134.579 372.085 167.694C372.089 175.408 372.272 174.957 364.928 174.881C359.705 174.827 354.482 174.9 349.259 174.896C347.907 174.896 346.548 174.881 345.208 174.736C344.152 174.621 343.476 173.919 343.391 172.853C343.298 171.719 343.294 170.573 343.29 169.435C343.259 134.797 343.235 100.159 343.197 65.5212C343.193 61.6908 343.635 57.9101 344.633 54.2248C348.626 39.4263 364.8 23.9328 385.821 25.6437C392.928 26.2203 399.634 27.8167 405.397 31.9259C408.205 33.927 410.1 33.3771 412.609 31.7196C417.653 28.3857 423.245 26.4953 429.346 25.7773C444.162 24.0321 456.379 28.6759 466.017 39.7891C471.458 46.0598 474.608 53.3464 474.74 61.6679C474.864 69.6572 474.74 77.6541 474.74 85.6433C474.736 95.164 474.74 104.681 474.74 114.202C474.74 114.961 474.728 115.721 474.697 116.481C474.518 121.102 474.231 152.246 474.211 168.431H474.204Z" fill="#4652CE"/>
<path d="M482.277 65.9986C482.312 61.8016 482.662 57.6733 483.858 53.6023C488.568 37.5779 504.009 25.8766 521.181 25.0288C540.066 24.097 555.655 35.9205 561.052 50.6884C562.715 55.2406 563.27 59.9417 563.219 64.7078C562.99 86.9571 562.68 109.206 562.388 131.456C562.361 133.548 562.221 135.637 562.183 137.726C561.779 159.502 539.313 179.574 513.465 174.3C499.201 171.39 489.753 163.004 484.083 150.13C482.134 145.704 481.605 140.93 481.563 136.168C481.454 123.997 481.528 111.826 481.528 99.6513C481.664 99.6513 482.18 77.2149 482.273 65.9986H482.277ZM533.581 100.083C533.655 100.083 533.729 100.083 533.806 100.083C533.806 89.0422 533.806 78.0016 533.803 66.961C533.803 65.4372 533.857 63.9058 533.694 62.3973C533.076 56.7224 526.541 50.7648 519.003 53.9574C514.25 55.97 511.733 59.556 511.57 64.578C511.372 70.6654 511.415 76.7604 511.337 82.8479C511.116 99.7849 510.879 116.726 510.665 133.663C510.646 135.179 510.595 136.73 510.859 138.215C511.811 143.588 516.545 147.354 521.927 147.159C527.426 146.961 531.931 143.038 532.672 137.753C532.805 136.814 532.812 135.855 532.832 134.904C533.088 123.298 533.333 111.692 533.581 100.083Z" fill="#4652CE"/>
<path d="M121.5 135.901C121.613 143.875 120.028 151.387 115.364 158.104C99.7567 180.586 69.9048 180.495 53.4391 163.71C46.1733 156.302 42.2199 147.507 42.0258 137.054C41.5831 113.468 40.9656 89.89 40.4103 66.308C40.053 51.1314 46.4917 39.5561 59.3769 31.311C71.4116 23.612 91.6287 23.7571 104.611 34.0874C114.692 42.1072 120.156 52.3267 120.37 65.1432C120.482 71.7996 120.556 78.4599 120.599 85.1163C120.615 87.4344 120.921 94.4117 121.073 102.615C121.298 114.606 121.403 129.237 121.5 135.901ZM92.1063 101.694C92.1063 98.4598 92.1568 95.2213 92.0947 91.9866C91.9277 83.2298 91.6714 74.4767 91.5394 65.7198C91.4617 60.7896 89.0773 57.4136 84.6308 55.4201C77.3727 52.1663 69.6291 56.8293 69.2757 64.662C69.1553 67.3238 69.2136 69.9933 69.2641 72.6551C69.5942 89.9779 69.9437 107.297 70.2815 124.62C70.3592 128.618 70.3009 132.62 70.5106 136.611C70.7631 141.454 73.8737 145.299 78.4794 146.827C85.4346 149.134 92.1374 144.822 92.584 137.677C92.7277 135.401 92.6345 133.109 92.6345 130.825C92.6345 121.118 92.2772 101.698 92.0986 101.698L92.1063 101.694Z" fill="#4652CE"/>
<path d="M167.487 25.8537C178.516 25.8537 189.545 25.8537 200.57 25.8575C202.116 25.8575 203.669 25.8423 205.211 25.9645C206.267 26.0485 206.982 26.6901 207.075 27.7938C207.172 28.9318 207.246 30.0699 207.254 31.2117C207.308 37.6849 207.382 44.1542 207.355 50.6273C207.343 53.4954 206.947 53.8773 203.925 53.9154C198.508 53.9842 193.091 53.8811 187.673 53.9193C182.093 53.9613 181.825 54.2133 181.887 59.7432C182.042 73.2547 182.268 86.7661 182.442 100.278C182.543 108.08 182.652 115.878 182.66 123.68C182.66 126.529 182.108 127.117 179.328 127.152C171.977 127.236 164.625 127.228 157.274 127.178C154.777 127.159 154.175 126.552 154.093 124.158C153.95 119.972 153.888 115.786 153.845 111.597C153.674 95.4199 153.53 79.239 153.367 63.0619C153.348 61.16 153.332 59.2505 153.2 57.3563C153.014 54.6831 152.493 54.1484 149.573 54.0873C143.966 53.9727 138.354 54.0186 132.746 53.9498C127.504 53.8849 127.418 53.8543 127.313 49.0081C127.174 42.5388 127.146 36.0656 127.15 29.5963C127.15 26.503 127.667 26.037 130.917 25.9263C133.236 25.8461 135.562 25.8919 137.884 25.8919C147.752 25.8919 157.62 25.8919 167.487 25.8919V25.8575V25.8537Z" fill="#4652CE"/>
<path d="M256.053 25.7926C267.276 25.7926 278.499 25.7926 289.722 25.7926C291.073 25.7926 292.432 25.7812 293.776 25.8957C294.852 25.9874 295.481 26.6786 295.574 27.7594C295.636 28.5155 295.679 29.2793 295.679 30.0393C295.698 36.3215 295.733 42.6037 295.71 48.8859C295.695 53.2586 296.036 53.8161 291.007 53.7589C286.172 53.7054 281.334 53.7894 276.495 53.8161C275.334 53.8238 274.169 53.778 273.015 53.8734C271.377 54.0071 270.487 54.8014 270.382 56.3557C270.258 58.2538 270.27 60.1594 270.281 62.0613C270.421 81.095 270.58 100.129 270.705 119.166C270.716 121.068 270.577 122.97 270.456 124.868C270.371 126.22 269.536 126.869 268.204 126.961C267.819 126.987 267.431 127.029 267.047 127.029C259.886 127.045 252.725 127.091 245.567 127.045C242.616 127.026 242.123 126.556 242.072 123.768C241.952 116.917 241.925 110.062 241.874 103.211C241.773 88.7443 241.68 74.2743 241.583 59.8081C241.575 58.8572 241.595 57.9024 241.521 56.9553C241.319 54.4081 240.884 53.946 238.379 53.8963C235.09 53.8314 231.801 53.8581 228.511 53.8658C225.611 53.8734 222.706 53.9574 219.805 53.9154C216.232 53.862 215.883 53.545 215.824 49.9514C215.716 42.9092 215.673 35.8632 215.653 28.8211C215.646 26.671 216.224 26.0981 218.321 25.9416C219.479 25.8537 220.64 25.869 221.801 25.8652C233.218 25.8614 244.635 25.8652 256.053 25.8652V25.8041V25.7926Z" fill="#4652CE"/>
<path d="M305.127 87.8354C305.127 80.9995 305.123 74.1674 305.127 67.3314C305.127 66.0024 305.151 64.6773 305.217 63.3483C305.267 62.2637 305.935 61.6259 306.98 61.4197C307.543 61.3089 308.133 61.3013 308.708 61.2975C315.849 61.286 322.991 61.2402 330.129 61.2975C333.671 61.328 333.915 61.645 333.938 65.3991C333.977 71.666 333.977 77.9291 333.981 84.196C333.989 92.548 333.997 100.904 333.993 109.256C333.993 110.394 333.981 111.536 333.896 112.67C333.733 114.778 333.298 115.145 330.972 115.305C330.777 115.317 330.587 115.324 330.393 115.324C323.251 115.332 316.11 115.382 308.972 115.324C305.605 115.298 305.263 114.958 305.24 111.75C305.186 103.776 305.224 95.8018 305.224 87.8316C305.189 87.8316 305.158 87.8316 305.123 87.8316L305.127 87.8354Z" fill="#4652CE"/>
<path d="M179.394 159.059C179.394 155.068 179.312 151.074 179.413 147.087C179.596 139.804 184.501 134.805 191.623 134.499C198.559 134.201 204.322 138.96 205.238 145.868C205.514 147.934 205.518 150.039 205.545 152.128C205.626 158.967 205.708 165.811 205.692 172.655C205.689 175.225 205.211 175.637 202.609 175.633C196.555 175.622 196.827 176.084 196.772 170.199C196.745 167.346 196.792 164.493 196.695 161.648C196.601 158.933 196.031 158.482 193.145 158.414C188.928 158.314 188.361 159.002 188.504 162.882C188.625 166.109 188.598 169.344 188.555 172.574C188.52 175.19 188.081 175.71 185.6 175.645C179.472 175.484 179.573 176.649 179.518 169.897C179.503 167.995 179.51 166.097 179.51 164.196C179.51 162.485 179.51 160.774 179.51 159.063H179.39L179.394 159.059ZM192.497 149.55V149.523C192.881 149.523 193.266 149.504 193.646 149.523C196.524 149.699 196.904 146.815 195.832 145.124C194.357 142.798 190.512 142.874 189.033 145.234C187.716 147.335 188.838 149.435 191.347 149.546C191.732 149.561 192.116 149.546 192.497 149.546V149.55Z" fill="#B11C27"/>
<path d="M319.263 53.7436C315.411 53.7436 311.554 53.7932 307.702 53.7207C305.846 53.6863 305.139 53.06 305.127 51.3911C305.077 43.6195 305.089 35.8479 305.116 28.0764C305.12 26.7588 305.943 25.9607 307.263 25.8881C309.186 25.7812 311.116 25.7812 313.042 25.7773C319.015 25.7621 324.991 25.7239 330.964 25.7888C333.205 25.8117 333.795 26.354 333.818 28.4315C333.9 35.825 333.931 43.2185 333.88 50.612C333.865 53.0753 333.201 53.6939 330.828 53.7359C326.976 53.8047 323.119 53.755 319.267 53.755V53.7398L319.263 53.7436Z" fill="#4652CE"/>
<path d="M307.873 154.881C307.873 149.179 307.857 143.478 307.881 137.772C307.892 134.663 308.087 134.396 311.046 134.369C315.877 134.327 320.708 134.419 325.539 134.446C327.473 134.457 329.407 134.396 331.333 134.476C333.092 134.553 333.729 135.179 333.799 136.947C334.039 142.855 334.016 142.794 328.401 142.886C325.504 142.932 322.607 142.989 319.71 143.073C318.451 143.107 317.364 143.623 317.1 144.891C316.836 146.155 316.483 147.533 317.438 148.717C317.659 148.992 318.032 149.267 318.366 149.313C319.317 149.45 320.284 149.542 321.244 149.519C325.453 149.42 325.593 150.138 325.531 154.289C325.527 154.671 325.515 155.049 325.484 155.427C325.313 157.474 324.886 158.081 322.568 158.013C315.83 157.81 316.925 160.277 316.956 164.589C316.964 165.933 317.853 166.64 319.181 166.663C323.045 166.724 326.91 166.697 330.774 166.777C333.399 166.831 333.772 167.239 333.904 169.733C334.206 175.439 334.113 175.545 328.467 175.534C322.863 175.523 317.259 175.511 311.655 175.465C308.18 175.435 307.97 175.236 307.955 171.986C307.931 166.284 307.947 160.579 307.947 154.877C307.92 154.877 307.896 154.877 307.869 154.877L307.873 154.881Z" fill="#B11C27"/>
<path d="M136.486 154.4C136.486 151.555 136.331 148.698 136.517 145.861C136.929 139.582 141.717 134.938 148.074 134.434C154.579 133.919 160.629 138.001 162.121 143.909C162.447 145.208 161.79 146.304 160.493 146.334C157.472 146.407 154.571 146.796 151.818 144.455C149.27 142.29 145.826 144.177 145.744 147.564C145.624 152.494 145.826 157.428 145.892 162.362C145.892 162.553 145.915 162.741 145.95 162.928C146.284 164.845 147.515 166.178 149.263 166.391C150.991 166.601 152.21 165.742 153.099 164.375C153.787 163.321 153.721 161.664 155.472 161.465C157.585 161.228 159.717 161.045 161.79 161.58C162.544 161.774 162.862 162.584 162.858 163.416C162.827 171.356 154.622 177.459 146.797 175.362C141.317 173.892 137.096 169.107 136.657 163.5C136.42 160.484 136.614 157.432 136.614 154.396H136.482L136.486 154.4Z" fill="#B11C27"/>
<path d="M222.166 154.602C222.166 148.713 222.143 142.821 222.178 136.932C222.189 135.03 222.702 134.423 224.473 134.411C231.618 134.358 238.764 134.373 245.905 134.4C247.292 134.404 247.979 135.24 248.002 136.577C248.123 143.68 248.697 142.893 242.15 143.065C239.447 143.138 236.744 143.142 234.041 143.195C233.028 143.214 232.115 143.588 231.579 144.44C230.974 145.399 231.273 148.06 231.941 148.794C232.507 149.42 233.276 149.435 234.041 149.531C235.719 149.741 237.75 148.851 239.004 150.241C240.371 151.753 239.634 153.873 239.63 155.729C239.63 157.585 239.063 158.074 237.261 158.288C235.568 158.486 233.564 157.715 232.243 159.002C230.55 160.652 231.509 162.973 231.436 165.001C231.331 167.846 231.443 170.699 231.389 173.548C231.366 174.892 230.554 175.587 229.176 175.599C228.209 175.607 227.245 175.618 226.278 175.599C222.492 175.519 222.399 175.492 222.36 171.704C222.298 166.006 222.345 160.304 222.345 154.602C222.286 154.602 222.224 154.602 222.166 154.602Z" fill="#B11C27"/>
<path d="M265.019 154.446C265.019 148.561 264.996 142.676 265.031 136.794C265.043 134.824 265.454 134.343 267.33 134.343C274.468 134.343 281.606 134.404 288.743 134.484C290.056 134.499 290.883 135.198 290.968 136.569C290.992 136.947 291.011 137.325 291.027 137.707C291.225 142.576 291.046 142.779 286.033 142.92C283.334 142.996 280.627 142.947 277.932 143.077C274.705 143.233 273.835 144.272 274.111 147.354C274.204 148.4 274.736 149.134 275.792 149.34C276.542 149.485 277.326 149.538 278.095 149.519C282.576 149.416 282.642 150.279 282.623 154.102C282.607 157.195 283.015 158.261 278.378 158.345C274.444 158.417 274.184 158.822 274.111 162.691C274.041 166.296 274.126 169.901 274.076 173.51C274.056 174.839 273.264 175.584 271.878 175.576C270.336 175.568 268.79 175.534 267.249 175.481C265.796 175.431 265.252 174.522 265.249 173.243C265.233 166.98 265.241 160.716 265.241 154.45C265.167 154.45 265.093 154.45 265.019 154.45V154.446Z" fill="#B11C27"/>
<path d="M406.811 126.724C406.034 130.688 407.184 134.431 408.675 138.177C409.727 140.812 409.25 143.05 407.937 143.287C405.968 143.638 404.737 142.301 403.626 141.007C400.302 137.127 400.469 131.238 403.964 127.469C404.636 126.747 405.428 126.239 406.807 126.728L406.811 126.724Z" fill="#B11C27"/>
<path d="M392.757 157.512C389.184 157.551 386.59 156.508 384.59 154.186C384.392 153.957 384.326 153.453 384.442 153.178C384.559 152.899 384.998 152.536 385.262 152.559C388.438 152.823 391.351 151.967 394.248 150.81C395.479 150.317 396.846 150.069 398.174 149.916C399.331 149.783 400.57 149.985 401.234 151.093C401.949 152.28 401.195 153.262 400.469 154.163C398.368 156.779 395.533 157.68 392.757 157.512Z" fill="#B11C27"/>
<path d="M433.067 148.175C431.187 148.29 429.269 148.217 427.436 148.576C425.758 148.901 424.177 149.703 422.543 150.264C421.999 150.451 421.432 150.589 420.865 150.68C418.224 151.104 415.793 150.432 415.758 149.214C415.692 147.041 417.183 145.777 418.838 144.73C423.141 142.019 429.428 143.038 432.977 147.006C433.168 147.22 433.043 147.709 433.07 148.179L433.067 148.175Z" fill="#B11C27"/>
<path d="M407.941 158.738C408.752 157.356 409.894 156.974 411.288 157.829C414.679 159.914 416.228 163.038 415.995 166.884C415.778 170.44 414.613 173.552 410.632 174.69C410.97 170.703 410.752 166.831 408.939 163.115C408.298 161.801 408.255 160.205 407.941 158.738Z" fill="#B11C27"/>
<path d="M417.533 154.19C419.331 153.732 420.954 153.38 422.535 152.895C424.174 152.391 425.754 151.704 427.393 151.2C428.104 150.982 428.904 150.925 429.653 150.967C431.008 151.043 432.597 151.28 433.094 152.563C433.661 154.026 432.212 154.87 431.16 155.664C429.253 157.096 427.063 157.596 424.69 157.497C421.801 157.379 420.9 156.997 417.533 154.194V154.19Z" fill="#B11C27"/>
<path d="M412.022 141.771C412.162 138.933 411.238 136.264 410.143 133.632C409.393 131.83 409.156 129.978 409.572 128.053C409.84 126.819 411.215 126.331 412.255 127.091C414.57 128.782 415.774 131.1 416.057 133.862C416.317 136.394 415.762 138.769 414.213 140.866C413.731 141.515 413.129 141.916 412.019 141.767L412.022 141.771Z" fill="#B11C27"/>
<path d="M387.491 149.706C387.161 149.641 386.403 149.523 385.666 149.344C384.081 148.95 383.607 147.514 384.633 146.357C385.798 145.04 387.203 144.115 388.943 143.722C392.454 142.924 395.79 143.157 398.753 145.395C399.211 145.742 399.393 146.64 398.916 146.785C395.467 147.839 391.972 148.752 388.489 149.699C388.31 149.748 388.108 149.706 387.487 149.706H387.491Z" fill="#B11C27"/>
<path d="M396.966 163.558C396.947 163.745 396.978 163.955 396.9 164.111C394.613 168.721 391.095 172.089 386.322 174.159C385.794 174.388 385.122 174.35 384.804 173.743C384.648 173.445 384.582 172.956 384.722 172.674C387.025 168.095 390.458 164.642 395.281 162.622C396.089 162.286 397.095 162.882 396.97 163.554L396.966 163.558Z" fill="#E1C752"/>
<path d="M432.259 172.819C432.267 173.598 431.335 174.121 430.589 173.72C427.172 171.891 424.174 169.565 422.166 166.231C421.544 165.2 420.053 163.978 421.393 162.786C422.282 161.996 423.556 163.004 424.504 163.573C427.327 165.269 429.537 167.621 431.544 170.168C432.142 170.928 432.441 171.826 432.263 172.819H432.259Z" fill="#E1C752"/>
<path d="M406.632 174.545C400.003 170.142 399.366 164.157 404.896 158.265C404.861 161.354 405.669 164.226 406.958 167.037C408.1 169.531 408.609 172.124 406.632 174.545Z" fill="#B11C27"/>
<path d="M422.24 138.815C421.979 138.582 421.611 138.391 421.475 138.093C421.335 137.78 421.269 137.276 421.432 137.016C423.987 132.968 427.168 129.542 431.622 127.461C432.142 127.217 432.795 127.266 433.105 127.877C433.257 128.179 433.342 128.668 433.199 128.939C430.954 133.216 427.878 136.714 423.366 138.799C423.059 138.941 422.624 138.819 422.24 138.819V138.815Z" fill="#E1C752"/>
<path d="M394.601 138.723C394.45 138.677 393.813 138.639 393.397 138.318C390.524 136.107 387.852 133.682 385.798 130.677C385.355 130.031 385.203 129.26 385.786 128.603C386.388 127.923 387.192 128.083 387.887 128.416C391.638 130.195 394.473 132.895 396.182 136.665C396.617 137.619 395.875 138.883 394.601 138.723Z" fill="#E1C752"/>
<path d="M314.782 123.543C316.638 123.459 317.585 123.436 318.533 123.371C320.288 123.249 321.434 124.062 322.222 125.548C322.933 126.888 323.783 128.16 324.44 129.523C324.642 129.943 324.595 130.734 324.312 131.047C324.001 131.391 323.263 131.547 322.75 131.482C322.024 131.391 321.127 131.211 320.665 130.734C318.704 128.706 316.754 126.644 314.785 123.539L314.782 123.543Z" fill="#B11C27"/>
<path d="M410.822 150.936C410.551 152.005 409.774 152.521 408.733 152.544C407.572 152.571 406.469 151.307 406.706 150.245C406.939 149.206 407.7 148.614 408.78 148.622C409.949 148.626 410.986 149.867 410.822 150.936Z" fill="#B11C27"/>
<path d="M533.581 100.083C533.333 111.689 533.084 123.298 532.832 134.904C532.812 135.855 532.804 136.814 532.672 137.753C531.927 143.038 527.426 146.961 521.927 147.159C516.545 147.35 511.811 143.588 510.859 138.215C510.595 136.733 510.65 135.183 510.665 133.663C510.879 116.726 511.116 99.785 511.337 82.8479C511.418 76.7566 511.372 70.6616 511.57 64.578C511.733 59.556 514.249 55.97 519.003 53.9575C526.54 50.7686 533.076 56.7224 533.694 62.3974C533.857 63.9058 533.802 65.4372 533.802 66.961C533.81 78.0016 533.806 89.0422 533.806 100.083C533.733 100.083 533.659 100.083 533.581 100.083Z" fill="#FAFAFA"/>
<path d="M92.6384 130.822C92.6384 133.105 92.7316 135.397 92.5879 137.673C92.1374 144.818 85.4385 149.134 78.4833 146.823C73.8815 145.296 70.7709 141.45 70.5146 136.607C70.3048 132.617 70.3631 128.614 70.2854 124.616C69.9476 107.293 69.5942 89.9741 69.268 72.6513C69.2175 69.9856 69.1592 67.3162 69.2796 64.6582C69.633 56.8255 77.3727 52.1625 84.6347 55.4163C89.0812 57.4098 91.4695 60.7857 91.5433 65.716C91.6792 74.4729 91.9355 83.2259 92.0986 91.9828C92.1607 95.2175 92.6462 121.11 92.6423 130.818L92.6384 130.822Z" fill="#FAFAFA"/>
<path d="M192.497 149.55C192.112 149.55 191.728 149.565 191.347 149.55C188.842 149.439 187.716 147.339 189.033 145.238C190.512 142.878 194.353 142.802 195.832 145.127C196.904 146.819 196.528 149.703 193.646 149.527C193.266 149.504 192.881 149.527 192.497 149.527V149.554V149.55Z" fill="#FAFAFA"/>
</g>
<defs>
<filter id="filter0_dd_4_802" x="0" y="0" width="604.002" height="232" filterUnits="userSpaceOnUse" color-interpolation-filters="sRGB">
<feFlood flood-opacity="0" result="BackgroundImageFix"/>
<feColorMatrix in="SourceAlpha" type="matrix" values="0 0 0 0 0 0 0 0 0 0 0 0 0 0 0 0 0 0 127 0" result="hardAlpha"/>
<feMorphology radius="4" operator="erode" in="SourceAlpha" result="effect1_dropShadow_4_802"/>
<feOffset dy="4"/>
<feGaussianBlur stdDeviation="2"/>
<feComposite in2="hardAlpha" operator="out"/>
<feColorMatrix type="matrix" values="0 0 0 0 0.0470588 0 0 0 0 0.0470588 0 0 0 0 0.0509804 0 0 0 0.05 0"/>
<feBlend mode="normal" in2="BackgroundImageFix" result="effect1_dropShadow_4_802"/>
<feColorMatrix in="SourceAlpha" type="matrix" values="0 0 0 0 0 0 0 0 0 0 0 0 0 0 0 0 0 0 127 0" result="hardAlpha"/>
<feMorphology radius="4" operator="erode" in="SourceAlpha" result="effect2_dropShadow_4_802"/>
<feOffset dy="16"/>
<feGaussianBlur stdDeviation="16"/>
<feComposite in2="hardAlpha" operator="out"/>
<feColorMatrix type="matrix" values="0 0 0 0 0.0470588 0 0 0 0 0.0470588 0 0 0 0 0.0509804 0 0 0 0.1 0"/>
<feBlend mode="normal" in2="effect1_dropShadow_4_802" result="effect2_dropShadow_4_802"/>
<feBlend mode="normal" in="SourceGraphic" in2="effect2_dropShadow_4_802" result="shape"/>
</filter>
</defs>
</svg>
