<svg width="150" height="48" viewBox="0 0 150 48" fill="none" xmlns="http://www.w3.org/2000/svg">
<path d="M18.5241 0.827451C20.0219 1.46799 21.5621 2.02313 22.9068 2.96885C23.1566 3.14486 23.399 2.97822 23.4149 2.63972C23.4298 2.32934 23.4202 2.01688 23.4266 1.70651C23.4564 0.3723 23.4564 0.354594 24.8893 0.35147C31.1375 0.33793 37.3846 0.34522 43.6328 0.327514C57.4526 0.287936 71.2734 0.237942 85.0932 0.193156C85.5695 0.192115 86.0467 0.183783 86.5229 0.207738C87.131 0.237942 87.2872 0.371259 87.3149 0.940978C87.3478 1.61381 87.334 2.28976 87.3425 2.96468C87.3446 3.16882 87.3383 3.399 87.5636 3.49274C87.7826 3.58335 87.9633 3.43025 88.1355 3.31463C88.5277 3.05009 88.9093 2.76783 89.3122 2.52099C93.8182 -0.247413 98.5378 -0.578621 103.42 1.41592C104.132 1.70651 104.7 1.68359 105.37 1.38155C107.784 0.293144 110.339 -0.0172336 112.968 0.176492C116.385 0.428543 119.274 1.81899 121.716 4.14161C122.171 4.57489 122.583 5.05087 123.019 5.50394C123.447 5.94972 123.561 5.94763 124.027 5.47582C124.543 4.95401 125.029 4.40408 125.568 3.90623C128.35 1.33364 131.658 0.0213032 135.484 0.000472474C137.13 -0.00890134 138.767 0.118166 140.337 0.654556C144.818 2.18769 147.902 5.0967 149.412 9.54718C149.512 9.83985 149.642 10.1231 149.757 10.4117C149.999 12.3666 150.025 14.3257 149.985 16.2953C149.872 21.73 149.822 27.1658 149.749 32.6015C149.723 34.5242 149.557 36.425 148.903 38.2602C148.465 39.4892 147.774 40.5901 147.162 41.7316L147.182 41.7441C147.009 41.8129 146.911 41.9399 146.874 42.116L146.953 42.1118L146.874 42.1045C146.454 42.3993 146.176 42.8159 145.885 43.221L145.809 43.295C145.443 43.5127 145.152 43.8032 144.928 44.1595L144.859 44.2261C144.513 44.5021 144.166 44.7771 143.819 45.0531C143.323 45.3489 142.825 45.6405 142.334 45.9426C139.92 47.4267 137.262 47.9496 134.451 47.8881C131.514 47.8236 128.833 47.0039 126.443 45.3114C126.278 45.1947 126.124 45.0354 125.84 45.1031C125.57 45.2395 125.689 45.5301 125.672 45.7634C125.647 46.1248 125.677 46.4894 125.66 46.8518C125.62 47.6996 125.474 47.8611 124.64 47.8861C123.636 47.9163 122.629 47.9246 121.624 47.9236C106.066 47.9079 90.507 47.8892 74.9492 47.8715C63.147 47.859 51.3458 47.8486 39.5435 47.8371C39.4372 47.8371 39.332 47.8392 39.2257 47.8381C38.5043 47.8298 38.0114 47.4319 37.7471 46.6446C35.6806 47.9246 33.5068 48.3922 31.1109 47.6371C28.6915 46.8747 27.2246 45.2437 26.387 42.9961C25.88 42.9221 25.7407 43.3314 25.5015 43.5741C23.2555 45.8467 20.5491 47.3174 17.3559 47.7319C13.5685 48.2235 9.97248 47.6267 6.77822 45.4041C6.3913 45.1354 5.99268 44.8833 5.60044 44.6229H5.59619C5.22202 44.1449 4.78301 43.7345 4.27278 43.3981C4.16223 43.119 3.96026 42.9231 3.69452 42.7846C3.59035 42.6065 3.50531 42.4128 3.37775 42.2514C1.3177 39.6527 0.405661 36.6906 0.412039 33.4223C0.415228 31.9714 0.368457 30.5206 0.336568 29.0707C0.228144 24.0464 0.106964 19.022 0.00279216 13.9977C-0.0227193 12.7489 0.15905 11.5178 0.505581 10.3148C1.2603 7.6922 2.76654 5.54248 4.83616 3.75416C5.38785 3.27714 5.96292 2.82616 6.52736 2.36371L6.53374 2.36684C6.77078 2.26373 7.01421 2.17415 7.24275 2.05542C9.41548 0.925355 11.7243 0.373342 14.1883 0.373342C15.4511 0.373342 16.6873 0.557693 17.9321 0.695176C18.1298 0.73892 18.3264 0.783706 18.5241 0.827451Z" fill="#FAFAFA"/>
<path d="M122.136 42.6629C122.134 44.3471 122.208 44.4117 120.399 44.4023C118.652 44.3929 116.904 44.4179 115.158 44.4044C114.364 44.3981 114.233 44.269 114.233 43.4847C114.233 40.1633 114.247 36.8408 114.261 33.5193C114.287 27.8096 114.317 22.101 114.347 16.3913C114.35 15.7684 114.374 15.1456 114.382 14.5238C114.389 13.8374 114.273 13.1802 113.877 12.5938C113.166 11.5409 111.99 11.0784 110.69 11.3888C109.372 11.7044 108.605 12.5772 108.33 13.8489C108.232 14.2988 108.262 14.779 108.26 15.2445C108.239 19.2409 108.213 23.2383 108.21 27.2347C108.209 28.8855 108.181 28.8616 106.537 28.8491C104.736 28.8355 102.935 28.8595 101.136 28.8418C100.427 28.8355 100.295 28.697 100.274 28.02C100.25 27.2941 100.264 26.5671 100.266 25.8401C100.275 22.2582 100.284 18.6774 100.293 15.0956C100.293 14.7842 100.297 14.4717 100.276 14.1614C100.159 12.497 99.0619 11.4034 97.4739 11.3575C95.8135 11.3096 94.4784 12.3772 94.2488 13.9687C94.1829 14.429 94.1893 14.9008 94.1893 15.3674C94.1839 24.3986 94.1776 33.4308 94.1839 42.4619C94.185 44.5658 94.235 44.4429 92.2249 44.4221C90.7952 44.4075 89.3655 44.4273 87.9357 44.4263C87.5658 44.4263 87.1938 44.4221 86.8271 44.3825C86.5379 44.3513 86.353 44.1596 86.3296 43.869C86.3041 43.5597 86.303 43.2472 86.3019 42.9369C86.2934 33.4901 86.2871 24.0434 86.2764 14.5967C86.2754 13.5521 86.3966 12.5209 86.6697 11.5159C87.7625 7.47991 92.1898 3.2544 97.9437 3.72101C99.889 3.87828 101.725 4.31364 103.302 5.43433C104.071 5.9801 104.589 5.83012 105.276 5.37809C106.657 4.46883 108.188 3.95327 109.858 3.75746C113.913 3.28148 117.257 4.54799 119.895 7.57885C121.385 9.28905 122.247 11.2763 122.283 13.5458C122.317 15.7247 122.283 17.9057 122.283 20.0846C122.282 22.6811 122.283 25.2766 122.283 27.8731C122.283 28.0804 122.28 28.2877 122.271 28.4949C122.222 29.7552 122.143 38.2489 122.138 42.6629H122.136Z" fill="#4652CE"/>
<path d="M124.346 14.7269C124.356 13.5822 124.451 12.4563 124.779 11.3461C126.068 6.97578 130.294 3.78452 134.995 3.5533C140.164 3.29917 144.431 6.52376 145.909 10.5514C146.363 11.7929 146.515 13.075 146.502 14.3748C146.439 20.4428 146.354 26.5108 146.274 32.5788C146.267 33.1495 146.228 33.7193 146.218 34.289C146.107 40.2278 139.958 45.7021 132.883 44.2638C128.978 43.4701 126.392 41.1829 124.84 37.6719C124.307 36.4648 124.162 35.1628 124.15 33.864C124.121 30.5447 124.141 27.2253 124.141 23.9049C124.178 23.9049 124.319 17.7859 124.345 14.7269H124.346ZM138.389 24.0226C138.409 24.0226 138.429 24.0226 138.451 24.0226C138.451 21.0115 138.451 18.0004 138.45 14.9894C138.45 14.5738 138.464 14.1561 138.42 13.7447C138.251 12.197 136.462 10.5722 134.399 11.4429C133.097 11.9918 132.409 12.9698 132.364 14.3394C132.31 15.9996 132.322 17.6619 132.3 19.3221C132.24 23.9413 132.175 28.5616 132.116 33.1808C132.111 33.5943 132.097 34.0171 132.17 34.4223C132.43 35.8877 133.726 36.9147 135.199 36.8616C136.704 36.8074 137.937 35.7378 138.14 34.2963C138.176 34.0401 138.179 33.7786 138.184 33.5193C138.254 30.3541 138.321 27.1888 138.389 24.0226Z" fill="#4652CE"/>
<path d="M25.5931 33.7911C25.6239 35.9659 25.1902 38.0146 23.9136 39.8466C19.6414 45.9781 11.4703 45.9531 6.96328 41.3756C4.97445 39.355 3.89233 36.9564 3.83918 34.1057C3.718 27.6732 3.54899 21.2427 3.39699 14.8113C3.29919 10.6722 5.06161 7.51531 8.58858 5.26664C11.8828 3.16691 17.4166 3.20649 20.9702 6.02384C23.7297 8.21106 25.2253 10.9982 25.2837 14.4936C25.3146 16.309 25.3348 18.1254 25.3464 19.9408C25.3507 20.573 25.4347 22.4759 25.4761 24.7131C25.5378 27.9835 25.5665 31.9737 25.5931 33.7911ZM17.5474 24.4621C17.5474 23.5799 17.5612 22.6967 17.5442 21.8145C17.4985 19.4263 17.4283 17.0391 17.3922 14.6509C17.3709 13.3062 16.7182 12.3855 15.5011 11.8418C13.5144 10.9545 11.3948 12.2262 11.2981 14.3624C11.2652 15.0883 11.2811 15.8163 11.2949 16.5423C11.3853 21.2667 11.4809 25.99 11.5734 30.7144C11.5947 31.8049 11.5787 32.8965 11.6361 33.9849C11.7052 35.3055 12.5567 36.3544 13.8174 36.771C15.7212 37.4001 17.5559 36.2242 17.6781 34.2755C17.7174 33.6547 17.6919 33.0298 17.6919 32.4069C17.6919 29.7594 17.5941 24.4632 17.5452 24.4632L17.5474 24.4621Z" fill="#4652CE"/>
<path d="M38.1808 3.77829C41.1997 3.77829 44.2186 3.77829 47.2364 3.77933C47.6594 3.77933 48.0846 3.77517 48.5066 3.80849C48.7958 3.83141 48.9913 4.00639 49.0169 4.30739C49.0434 4.61777 49.0636 4.92814 49.0658 5.23956C49.0806 7.00496 49.1008 8.76932 49.0934 10.5347C49.0902 11.3169 48.9818 11.4211 48.1548 11.4315C46.6719 11.4502 45.1891 11.4221 43.7062 11.4325C42.1787 11.444 42.1054 11.5127 42.1224 13.0209C42.1649 16.7058 42.2265 20.3908 42.2744 24.0757C42.302 26.2036 42.3318 28.3304 42.3339 30.4582C42.3339 31.2352 42.183 31.3956 41.4219 31.405C39.4097 31.4279 37.3974 31.4258 35.3852 31.4123C34.7017 31.4071 34.537 31.2415 34.5146 30.5884C34.4753 29.4469 34.4583 28.3054 34.4466 27.1628C34.3998 22.7509 34.3605 18.3379 34.3159 13.926C34.3105 13.4073 34.3063 12.8865 34.2701 12.3699C34.2191 11.6408 34.0767 11.495 33.2773 11.4784C31.7424 11.4471 30.2064 11.4596 28.6714 11.4409C27.2364 11.4232 27.213 11.4148 27.1843 10.0931C27.1461 8.32875 27.1386 6.56335 27.1397 4.79899C27.1397 3.95535 27.2811 3.82828 28.1708 3.79808C28.8054 3.77621 29.4421 3.7887 30.0778 3.7887C32.7788 3.7887 35.4798 3.7887 38.1808 3.7887V3.77933V3.77829Z" fill="#4652CE"/>
<path d="M62.4232 3.76162C65.4952 3.76162 68.5672 3.76162 71.6392 3.76162C72.0091 3.76162 72.3812 3.7585 72.7489 3.78974C73.0434 3.81474 73.2156 4.00326 73.2411 4.29801C73.2581 4.50424 73.2698 4.71254 73.2698 4.91981C73.2751 6.63313 73.2847 8.34646 73.2783 10.0598C73.2741 11.2523 73.3676 11.4044 71.991 11.3888C70.6676 11.3742 69.3432 11.3971 68.0187 11.4044C67.7009 11.4065 67.382 11.394 67.0663 11.42C66.6177 11.4565 66.3743 11.6731 66.3456 12.097C66.3115 12.6147 66.3147 13.1344 66.3179 13.6531C66.3562 18.8441 66.3998 24.0351 66.4338 29.2271C66.437 29.7458 66.3987 30.2645 66.3658 30.7822C66.3424 31.1509 66.1138 31.3279 65.7492 31.3529C65.644 31.3602 65.5377 31.3717 65.4325 31.3717C63.4723 31.3758 61.5122 31.3883 59.5531 31.3758C58.7452 31.3706 58.6102 31.2425 58.5964 30.4822C58.5635 28.6137 58.556 26.7441 58.5422 24.8756C58.5146 20.9303 58.4891 16.9839 58.4625 13.0386C58.4604 12.7792 58.4657 12.5188 58.4455 12.2605C58.3902 11.5658 58.2712 11.4398 57.5855 11.4263C56.6852 11.4086 55.7849 11.4159 54.8845 11.4179C54.0905 11.42 53.2954 11.4429 52.5013 11.4315C51.5234 11.4169 51.4277 11.3305 51.4118 10.3504C51.382 8.42978 51.3703 6.50815 51.365 4.58756C51.3629 4.00118 51.5212 3.84495 52.0952 3.80224C52.412 3.77829 52.7298 3.78245 53.0477 3.78141C56.1728 3.78037 59.298 3.78141 62.4232 3.78141V3.76475V3.76162Z" fill="#4652CE"/>
<path d="M75.856 20.6824C75.856 18.818 75.855 16.9547 75.856 15.0904C75.856 14.7279 75.8624 14.3665 75.8805 14.0041C75.8943 13.7083 76.0771 13.5343 76.3631 13.4781C76.5172 13.4479 76.6788 13.4458 76.8361 13.4448C78.7909 13.4416 80.7458 13.4291 82.6995 13.4448C83.669 13.4531 83.7359 13.5395 83.7423 14.5634C83.7529 16.2725 83.7529 17.9806 83.754 19.6898C83.7561 21.9676 83.7582 24.2465 83.7572 26.5244C83.7572 26.8347 83.754 27.1462 83.7306 27.4555C83.686 28.0304 83.5669 28.1304 82.9302 28.1741C82.877 28.1773 82.8249 28.1793 82.7718 28.1793C80.817 28.1814 78.8622 28.195 76.9084 28.1793C75.9868 28.1721 75.8933 28.0794 75.8869 27.2045C75.872 25.0298 75.8826 22.855 75.8826 20.6813C75.8731 20.6813 75.8645 20.6813 75.855 20.6813L75.856 20.6824Z" fill="#4652CE"/>
<path d="M41.4399 40.107C41.4399 39.0186 41.4176 37.9292 41.4453 36.8418C41.4952 34.8556 42.8378 33.4922 44.7873 33.4089C46.6857 33.3277 48.2632 34.6254 48.5141 36.5096C48.5895 37.073 48.5906 37.6469 48.598 38.2166C48.6204 40.082 48.6427 41.9485 48.6384 43.8149C48.6374 44.5158 48.5066 44.6283 47.7944 44.6273C46.1372 44.6242 46.2117 44.7502 46.1968 43.1452C46.1893 42.3671 46.2021 41.5891 46.1755 40.8132C46.15 40.0726 45.9937 39.9497 45.204 39.931C44.0496 39.9039 43.8944 40.0914 43.9337 41.1496C43.9666 42.0297 43.9592 42.9119 43.9475 43.793C43.9379 44.5065 43.8178 44.6481 43.1386 44.6304C41.4612 44.5867 41.4888 44.9043 41.474 43.0629C41.4697 42.5442 41.4718 42.0266 41.4718 41.5079C41.4718 41.0413 41.4718 40.5747 41.4718 40.1081H41.4389L41.4399 40.107ZM45.0264 37.5136V37.5063C45.1317 37.5063 45.2369 37.5011 45.3411 37.5063C46.1287 37.5542 46.2329 36.7679 45.9395 36.3065C45.5356 35.6722 44.4833 35.693 44.0783 36.3367C43.7179 36.9095 44.0251 37.4824 44.7118 37.5126C44.817 37.5167 44.9223 37.5126 45.0264 37.5126V37.5136Z" fill="#B11C27"/>
<path d="M79.7253 11.3846C78.6708 11.3846 77.6153 11.3982 76.5608 11.3784C76.0527 11.369 75.8592 11.1982 75.856 10.743C75.8422 8.62351 75.8454 6.50399 75.8528 4.38447C75.8539 4.02514 76.0793 3.80746 76.4407 3.78767C76.9668 3.7585 77.4951 3.7585 78.0224 3.75746C79.6572 3.7533 81.2932 3.74288 82.928 3.76059C83.5414 3.76683 83.7029 3.91473 83.7093 4.48133C83.7316 6.49774 83.7402 8.51415 83.7263 10.5306C83.7221 11.2023 83.5403 11.3711 82.8908 11.3825C81.8363 11.4013 80.7808 11.3877 79.7263 11.3877V11.3836L79.7253 11.3846Z" fill="#4652CE"/>
<path d="M76.6076 38.9676C76.6076 37.4125 76.6033 35.8575 76.6097 34.3015C76.6129 33.4537 76.666 33.3808 77.476 33.3735C78.7984 33.362 80.1207 33.387 81.4431 33.3943C81.9724 33.3974 82.5018 33.3808 83.029 33.4026C83.5106 33.4235 83.6849 33.5943 83.704 34.0765C83.7699 35.6878 83.7635 35.6711 82.2265 35.6961C81.4335 35.7086 80.6405 35.7242 79.8475 35.7471C79.5031 35.7565 79.2055 35.8971 79.1332 36.2429C79.0609 36.5876 78.9642 36.9636 79.2257 37.2865C79.2863 37.3615 79.3883 37.4365 79.4797 37.449C79.7402 37.4865 80.0048 37.5115 80.2674 37.5052C81.4197 37.4782 81.4579 37.674 81.4409 38.8061C81.4399 38.9103 81.4367 39.0134 81.4282 39.1165C81.3814 39.6748 81.2645 39.8404 80.6299 39.8216C78.7856 39.7664 79.0854 40.4392 79.0939 41.6151C79.096 41.9818 79.3394 42.1744 79.703 42.1807C80.7606 42.1974 81.8183 42.1901 82.876 42.2119C83.5945 42.2265 83.6966 42.338 83.7327 43.0181C83.8156 44.5741 83.7901 44.6033 82.2445 44.6002C80.7107 44.597 79.1768 44.5939 77.6429 44.5814C76.6915 44.5731 76.6341 44.5189 76.6299 43.6326C76.6235 42.0776 76.6278 40.5215 76.6278 38.9665C76.6203 38.9665 76.6139 38.9665 76.6065 38.9665L76.6076 38.9676Z" fill="#B11C27"/>
<path d="M29.6951 38.8363C29.6951 38.0604 29.6526 37.2813 29.7036 36.5075C29.8163 34.7952 31.1269 33.5287 32.867 33.3912C34.6475 33.2506 36.3036 34.364 36.7118 35.9753C36.8011 36.3294 36.6215 36.6283 36.2664 36.6366C35.4394 36.6564 34.6454 36.7626 33.8917 36.1242C33.1944 35.5336 32.2515 36.0482 32.2292 36.972C32.1963 38.3166 32.2515 39.6623 32.2696 41.0079C32.2696 41.06 32.276 41.1111 32.2856 41.1621C32.377 41.6849 32.7139 42.0484 33.1923 42.1068C33.6653 42.164 33.9991 41.9297 34.2425 41.5568C34.4307 41.2694 34.4126 40.8173 34.892 40.7632C35.4702 40.6986 36.0538 40.6486 36.6215 40.7944C36.8277 40.8476 36.9148 41.0684 36.9138 41.2954C36.9053 43.4608 34.6592 45.1251 32.5173 44.5533C31.0174 44.1523 29.862 42.8473 29.7418 41.3183C29.677 40.4955 29.7302 39.6633 29.7302 38.8353H29.694L29.6951 38.8363Z" fill="#B11C27"/>
<path d="M53.1476 38.8915C53.1476 37.2855 53.1412 35.6784 53.1508 34.0724C53.154 33.5537 53.2943 33.3881 53.779 33.385C55.7349 33.3704 57.6908 33.3745 59.6456 33.3818C60.0251 33.3829 60.2132 33.611 60.2196 33.9755C60.2525 35.9128 60.4099 35.6982 58.6177 35.7451C57.8778 35.7649 57.138 35.7659 56.3982 35.7805C56.1207 35.7857 55.8709 35.8878 55.7242 36.12C55.5584 36.3814 55.6403 37.1074 55.8231 37.3074C55.9783 37.4782 56.1888 37.4823 56.3982 37.5084C56.8574 37.5657 57.4133 37.323 57.7567 37.7021C58.1308 38.1146 57.9289 38.6926 57.9278 39.1988C57.9278 39.705 57.7726 39.8383 57.2794 39.8966C56.8159 39.9508 56.2674 39.7404 55.906 40.0914C55.4426 40.5413 55.7051 41.1746 55.6849 41.7276C55.6562 42.5036 55.687 43.2816 55.6722 44.0586C55.6658 44.4252 55.4436 44.6148 55.0663 44.6179C54.8016 44.62 54.538 44.6231 54.2733 44.6179C53.2369 44.596 53.2114 44.5887 53.2007 43.5555C53.1837 42.0016 53.1965 40.4466 53.1965 38.8915C53.1805 38.8915 53.1635 38.8915 53.1476 38.8915Z" fill="#B11C27"/>
<path d="M64.8776 38.8488C64.8776 37.2438 64.8712 35.6388 64.8808 34.0349C64.8839 33.4974 64.9966 33.3662 65.51 33.3662C67.4638 33.3662 69.4176 33.3829 71.3713 33.4047C71.7306 33.4089 71.957 33.5995 71.9804 33.9734C71.9868 34.0765 71.9921 34.1796 71.9963 34.2838C72.0506 35.6118 72.0017 35.667 70.6294 35.7055C69.8906 35.7263 69.1497 35.7128 68.412 35.7482C67.5286 35.7909 67.2905 36.0742 67.366 36.9147C67.3915 37.2001 67.5371 37.4001 67.8263 37.4563C68.0314 37.4959 68.2462 37.5105 68.4566 37.5053C69.6833 37.4771 69.7014 37.7125 69.6961 38.7551C69.6918 39.5988 69.8034 39.8893 68.5342 39.9123C67.4574 39.932 67.3862 40.0424 67.366 41.0975C67.3469 42.0807 67.3703 43.0639 67.3564 44.0482C67.3511 44.4106 67.1343 44.6137 66.7548 44.6117C66.3328 44.6096 65.9097 44.6002 65.4877 44.5856C65.0902 44.5721 64.9413 44.3242 64.9403 43.9753C64.936 42.2672 64.9382 40.559 64.9382 38.8499C64.918 38.8499 64.8978 38.8499 64.8776 38.8499V38.8488Z" fill="#B11C27"/>
<path d="M103.689 31.2883C103.476 32.3695 103.791 33.3902 104.199 34.4119C104.487 35.1306 104.357 35.7409 103.997 35.8055C103.458 35.9013 103.121 35.5368 102.817 35.1837C101.908 34.1255 101.953 32.5194 102.91 31.4914C103.094 31.2946 103.311 31.1561 103.688 31.2894L103.689 31.2883Z" fill="#B11C27"/>
<path d="M99.8422 39.6852C98.8642 39.6956 98.1542 39.4113 97.6067 38.778C97.5525 38.7155 97.5345 38.578 97.5663 38.5031C97.5982 38.427 97.7184 38.3281 97.7906 38.3343C98.6602 38.4062 99.4574 38.1729 100.25 37.8573C100.587 37.7229 100.962 37.6552 101.325 37.6136C101.642 37.5771 101.981 37.6323 102.163 37.9344C102.358 38.2583 102.152 38.526 101.953 38.7718C101.378 39.4852 100.602 39.731 99.8422 39.6852Z" fill="#B11C27"/>
<path d="M110.876 37.1386C110.361 37.1699 109.836 37.1501 109.335 37.248C108.875 37.3365 108.443 37.5553 107.995 37.7084C107.846 37.7594 107.691 37.7969 107.536 37.8219C106.813 37.9375 106.148 37.7542 106.138 37.4219C106.12 36.8293 106.528 36.4846 106.981 36.1992C108.159 35.4597 109.88 35.7378 110.851 36.8199C110.904 36.8783 110.87 37.0116 110.877 37.1397L110.876 37.1386Z" fill="#B11C27"/>
<path d="M103.998 40.0195C104.221 39.6425 104.533 39.5383 104.915 39.7716C105.843 40.3403 106.267 41.1923 106.203 42.2411C106.144 43.2108 105.825 44.0596 104.735 44.37C104.828 43.2827 104.768 42.2265 104.272 41.2131C104.096 40.8548 104.085 40.4195 103.998 40.0195Z" fill="#B11C27"/>
<path d="M106.624 38.7791C107.116 38.6541 107.56 38.5583 107.993 38.426C108.442 38.2885 108.874 38.101 109.323 37.9635C109.517 37.9042 109.736 37.8885 109.942 37.9C110.313 37.9208 110.747 37.9854 110.883 38.3354C111.039 38.7343 110.642 38.9645 110.354 39.1811C109.832 39.5717 109.233 39.7081 108.583 39.681C107.792 39.6487 107.546 39.5446 106.624 38.7801V38.7791Z" fill="#B11C27"/>
<path d="M105.116 35.392C105.154 34.6181 104.901 33.8901 104.601 33.1725C104.396 32.6809 104.331 32.1757 104.445 31.6508C104.518 31.3144 104.894 31.181 105.179 31.3883C105.813 31.8497 106.142 32.4819 106.22 33.235C106.291 33.9255 106.139 34.5733 105.715 35.1451C105.583 35.3222 105.419 35.4315 105.115 35.3909L105.116 35.392Z" fill="#B11C27"/>
<path d="M98.4008 37.5563C98.3104 37.5386 98.1031 37.5063 97.9012 37.4573C97.4675 37.3501 97.3378 36.9584 97.6184 36.6429C97.9373 36.2835 98.3221 36.0315 98.7983 35.9242C99.7593 35.7065 100.672 35.77 101.483 36.3804C101.609 36.4752 101.659 36.7199 101.528 36.7595C100.584 37.047 99.6274 37.2959 98.674 37.5542C98.6251 37.5677 98.5698 37.5563 98.3997 37.5563H98.4008Z" fill="#B11C27"/>
<path d="M100.994 41.3339C100.989 41.385 100.998 41.4423 100.976 41.485C100.35 42.7421 99.3872 43.6607 98.0808 44.2252C97.9363 44.2877 97.7524 44.2773 97.6652 44.1117C97.6227 44.0305 97.6046 43.8972 97.6429 43.8201C98.2732 42.5713 99.2129 41.6297 100.533 41.0788C100.754 40.9871 101.03 41.1496 100.996 41.3329L100.994 41.3339Z" fill="url(#paint0_linear_3_178)"/>
<path d="M110.655 43.8597C110.657 44.0721 110.402 44.2148 110.198 44.1055C109.262 43.6066 108.442 42.9723 107.892 42.063C107.722 41.7818 107.314 41.4485 107.681 41.1235C107.924 40.9079 108.273 41.1829 108.532 41.3381C109.305 41.8005 109.91 42.4421 110.459 43.1368C110.623 43.3441 110.705 43.5889 110.656 43.8597H110.655Z" fill="url(#paint1_linear_3_178)"/>
<path d="M103.64 44.3304C101.826 43.1296 101.651 41.4975 103.165 39.8904C103.155 40.733 103.377 41.5162 103.729 42.2828C104.042 42.9629 104.181 43.6701 103.64 44.3304Z" fill="#B11C27"/>
<path d="M107.912 34.5858C107.841 34.5223 107.74 34.4702 107.703 34.389C107.665 34.3036 107.647 34.1661 107.691 34.0953C108.391 32.9912 109.261 32.057 110.48 31.4893C110.623 31.4227 110.801 31.4362 110.887 31.6029C110.928 31.6852 110.951 31.8185 110.912 31.8924C110.298 33.0589 109.456 34.013 108.221 34.5817C108.137 34.6202 108.018 34.5869 107.912 34.5869V34.5858Z" fill="url(#paint2_linear_3_178)"/>
<path d="M100.347 34.5608C100.306 34.5483 100.131 34.5379 100.018 34.4504C99.231 33.8474 98.4996 33.186 97.9373 32.3663C97.8161 32.1903 97.7747 31.9799 97.9341 31.8008C98.0989 31.6154 98.3189 31.6591 98.5092 31.7497C99.536 32.2351 100.312 32.9714 100.78 33.9994C100.899 34.2598 100.696 34.6046 100.347 34.5608Z" fill="url(#paint3_linear_3_178)"/>
<path d="M78.4986 30.4207C79.0067 30.3978 79.2661 30.3916 79.5254 30.3739C80.0059 30.3405 80.3195 30.5624 80.5353 30.9675C80.7298 31.3331 80.9626 31.6799 81.1422 32.0518C81.1975 32.1663 81.1848 32.3819 81.1072 32.4673C81.0221 32.5611 80.8201 32.6038 80.6798 32.5861C80.4811 32.5611 80.2355 32.5121 80.109 32.3819C79.5722 31.8289 79.0386 31.2665 78.4997 30.4197L78.4986 30.4207Z" fill="#B11C27"/>
<path d="M104.787 37.8917C104.713 38.1833 104.5 38.3239 104.215 38.3301C103.897 38.3374 103.596 37.9927 103.66 37.7031C103.724 37.4198 103.933 37.2584 104.228 37.2605C104.548 37.2615 104.832 37.6 104.787 37.8917Z" fill="url(#paint4_linear_3_178)"/>
<path d="M138.389 24.0226C138.321 27.1878 138.253 30.3541 138.184 33.5193C138.179 33.7786 138.176 34.0401 138.14 34.2963C137.936 35.7378 136.704 36.8074 135.199 36.8616C133.726 36.9137 132.43 35.8878 132.17 34.4223C132.097 34.0182 132.112 33.5953 132.116 33.1808C132.175 28.5616 132.24 23.9414 132.3 19.3221C132.323 17.6609 132.31 15.9986 132.364 14.3394C132.409 12.9698 133.097 11.9918 134.399 11.4429C136.462 10.5733 138.251 12.197 138.42 13.7447C138.464 14.1561 138.45 14.5738 138.45 14.9894C138.452 18.0004 138.451 21.0115 138.451 24.0226C138.43 24.0226 138.41 24.0226 138.389 24.0226Z" fill="#FAFAFA"/>
<path d="M17.693 32.4059C17.693 33.0287 17.7185 33.6537 17.6792 34.2744C17.5559 36.2231 15.7222 37.4001 13.8184 36.7699C12.5588 36.3533 11.7074 35.3045 11.6372 33.9838C11.5798 32.8954 11.5957 31.8039 11.5745 30.7134C11.482 25.989 11.3853 21.2656 11.296 16.5412C11.2822 15.8143 11.2662 15.0862 11.2992 14.3613C11.3959 12.2251 13.5144 10.9534 15.5022 11.8408C16.7193 12.3845 17.373 13.3052 17.3932 14.6498C17.4304 17.0381 17.5006 19.4253 17.5452 21.8135C17.5622 22.6957 17.6951 29.7573 17.6941 32.4049L17.693 32.4059Z" fill="#FAFAFA"/>
<path d="M45.0264 37.5136C44.9212 37.5136 44.816 37.5178 44.7118 37.5136C44.0262 37.4834 43.7179 36.9105 44.0783 36.3377C44.4833 35.694 45.5345 35.6732 45.9395 36.3075C46.2329 36.7689 46.1298 37.5553 45.3411 37.5073C45.2369 37.5011 45.1317 37.5073 45.0264 37.5073V37.5146V37.5136Z" fill="#FAFAFA"/>
<defs>
<linearGradient id="paint0_linear_3_178" x1="99.3102" y1="41.0524" x2="99.3102" y2="44.2605" gradientUnits="userSpaceOnUse">
<stop stop-color="#CDAD1B"/>
<stop offset="0.67" stop-color="#F6E38C"/>
</linearGradient>
<linearGradient id="paint1_linear_3_178" x1="109.101" y1="41.0441" x2="109.101" y2="44.1432" gradientUnits="userSpaceOnUse">
<stop stop-color="#CDAD1B"/>
<stop offset="0.67" stop-color="#F6E38C"/>
</linearGradient>
<linearGradient id="paint2_linear_3_178" x1="109.299" y1="31.4519" x2="109.299" y2="34.6003" gradientUnits="userSpaceOnUse">
<stop stop-color="#CDAD1B"/>
<stop offset="0.67" stop-color="#F6E38C"/>
</linearGradient>
<linearGradient id="paint3_linear_3_178" x1="99.3219" y1="31.6717" x2="99.3219" y2="34.5646" gradientUnits="userSpaceOnUse">
<stop stop-color="#CDAD1B"/>
<stop offset="0.67" stop-color="#F6E38C"/>
</linearGradient>
<linearGradient id="paint4_linear_3_178" x1="104.222" y1="37.2605" x2="104.222" y2="38.3303" gradientUnits="userSpaceOnUse">
<stop stop-color="#CDAD1B"/>
<stop offset="0.67" stop-color="#F6E38C"/>
</linearGradient>
</defs>
</svg>
