<svg width="22" height="22" viewBox="0 0 22 22" fill="none" xmlns="http://www.w3.org/2000/svg">
<path fill-rule="evenodd" clip-rule="evenodd" d="M9.6 2.13333C5.47627 2.13333 2.13333 5.47627 2.13333 9.6C2.13333 13.7237 5.47627 17.0667 9.6 17.0667C13.7237 17.0667 17.0667 13.7237 17.0667 9.6C17.0667 5.47627 13.7237 2.13333 9.6 2.13333ZM0 9.6C0 4.29806 4.29806 0 9.6 0C14.902 0 19.2 4.29807 19.2 9.6C19.2 11.8595 18.4194 13.9366 17.1133 15.5765L21.0236 19.5151C21.4387 19.9332 21.4362 20.6086 21.0182 21.0236C20.6001 21.4387 19.9248 21.4362 19.5097 21.0182L15.6079 17.0881C13.9632 18.4094 11.8739 19.2 9.6 19.2C4.29807 19.2 0 14.902 0 9.6Z" fill="#292F6C"/>
</svg>
