<svg width="22" height="22" viewBox="0 0 22 22" fill="none" xmlns="http://www.w3.org/2000/svg">
<path fill-rule="evenodd" clip-rule="evenodd" d="M9.93334 2.46668C5.80961 2.46668 2.46668 5.80961 2.46668 9.93334C2.46668 14.0571 5.80961 17.4 9.93334 17.4C14.0571 17.4 17.4 14.0571 17.4 9.93334C17.4 5.80961 14.0571 2.46668 9.93334 2.46668ZM0.333344 9.93334C0.333344 4.63141 4.63141 0.333344 9.93334 0.333344C15.2353 0.333344 19.5333 4.63141 19.5333 9.93334C19.5333 12.1928 18.7528 14.27 17.4466 15.9098L21.357 19.8485C21.772 20.2665 21.7696 20.9419 21.3515 21.357C20.9335 21.772 20.2581 21.7696 19.843 21.3515L15.9412 17.4215C14.2965 18.7428 12.2072 19.5333 9.93334 19.5333C4.63141 19.5333 0.333344 15.2353 0.333344 9.93334Z" fill="white"/>
</svg>
