<svg width="24" height="24" viewBox="0 0 24 24" fill="none" xmlns="http://www.w3.org/2000/svg">
<rect x="1" y="1" width="22" height="22" rx="11" stroke="#292F6C" stroke-width="2"/>
<path d="M11.0909 5H12.9091L12.5455 14.7902H11.4545L11.0909 5ZM11 17.9231C11 17.6228 11.097 17.3683 11.2909 17.1594C11.497 16.9506 11.7333 16.8462 12 16.8462C12.2788 16.8462 12.5152 16.9506 12.7091 17.1594C12.903 17.3683 13 17.6228 13 17.9231C13 18.2103 12.903 18.4648 12.7091 18.6867C12.5152 18.8956 12.2788 19 12 19C11.7333 19 11.497 18.8956 11.2909 18.6867C11.097 18.4648 11 18.2103 11 17.9231Z" fill="#292F6C"/>
</svg>
